<svg width="124" height="68" viewBox="0 0 124 68" fill="none" xmlns="http://www.w3.org/2000/svg">
<g clip-path="url(#clip0_3_13293)">
<path fill-rule="evenodd" clip-rule="evenodd" d="M69.5441 42.0535C65.832 44.7896 60.4515 46.2494 55.8191 46.2494C49.3237 46.2494 43.4761 43.8469 39.0522 39.8512C38.7046 39.537 39.016 39.1088 39.4331 39.3535C44.2074 42.1313 50.1106 43.8024 56.2084 43.8024C60.3209 43.8024 64.8449 42.9516 69.0046 41.1859C69.633 40.919 70.1586 41.5974 69.5441 42.0535Z" fill="url(#paint0_linear_3_13293)"/>
<path fill-rule="evenodd" clip-rule="evenodd" d="M71.0873 40.2878C70.6146 39.6816 67.9508 40.0014 66.7552 40.1432C66.3909 40.1877 66.3353 39.8707 66.6634 39.6427C68.785 38.1495 72.2663 38.5805 72.6722 39.081C73.0782 39.5843 72.5666 43.074 70.5729 44.7395C70.267 44.9953 69.9751 44.8591 70.1113 44.5199C70.559 43.4021 71.5628 40.8968 71.0873 40.2878Z" fill="url(#paint1_linear_3_13293)"/>
<path fill-rule="evenodd" clip-rule="evenodd" d="M66.8394 29.1021V27.6507C66.8394 27.431 67.0063 27.2836 67.2065 27.2836H73.7047C73.9132 27.2836 74.0801 27.4338 74.0801 27.6507V28.8936C74.0773 29.1021 73.9021 29.3746 73.5907 29.8056L70.2234 34.6132C71.4747 34.5827 72.7954 34.769 73.9299 35.4085C74.1857 35.5531 74.2553 35.7644 74.2747 35.9729V37.5217C74.2747 37.7331 74.0411 37.9805 73.7965 37.8526C71.7972 36.8043 69.1418 36.6903 66.9312 37.8637C66.706 37.9861 66.4696 37.7414 66.4696 37.5301V36.0591C66.4696 35.8228 66.4724 35.4196 66.7087 35.0609L70.6099 29.4664H67.2148C67.0063 29.4664 66.8394 29.319 66.8394 29.1021Z" fill="url(#paint2_linear_3_13293)"/>
<path fill-rule="evenodd" clip-rule="evenodd" d="M43.1349 38.1585H41.1579C40.9689 38.1446 40.8187 38.0028 40.8048 37.8221V27.6757C40.8048 27.4727 40.9744 27.3114 41.1857 27.3114H43.0293C43.2211 27.3198 43.3741 27.4672 43.388 27.6507V28.977H43.4241C43.9052 27.6952 44.8088 27.0973 46.0267 27.0973C47.2641 27.0973 48.0371 27.6952 48.5932 28.977C49.0715 27.6952 50.1587 27.0973 51.3238 27.0973C52.1524 27.0973 53.0588 27.4394 53.6122 28.2068C54.2378 29.0604 54.1099 30.3006 54.1099 31.3878L54.1071 37.7915C54.1071 37.9944 53.9375 38.1585 53.7262 38.1585H51.752C51.5545 38.1446 51.3961 37.9861 51.3961 37.7915V32.4138C51.3961 31.9856 51.435 30.9179 51.3404 30.5119C51.1931 29.8307 50.751 29.6388 50.1782 29.6388C49.6999 29.6388 49.1994 29.9586 48.9964 30.4702C48.7934 30.9818 48.8129 31.8382 48.8129 32.4138V37.7915C48.8129 37.9944 48.6433 38.1585 48.432 38.1585H46.4577C46.2575 38.1446 46.1018 37.9861 46.1018 37.7915L46.099 32.4138C46.099 31.2821 46.2853 29.6165 44.8811 29.6165C43.4603 29.6165 43.5159 31.2404 43.5159 32.4138V37.7915C43.5159 37.9944 43.3463 38.1585 43.1349 38.1585Z" fill="url(#paint3_linear_3_13293)"/>
<path fill-rule="evenodd" clip-rule="evenodd" d="M79.6745 27.0973C82.6081 27.0973 84.1958 29.6165 84.1958 32.8198C84.1958 35.9146 82.4412 38.3698 79.6745 38.3698C76.7938 38.3698 75.2256 35.8506 75.2256 32.7113C75.2256 29.5526 76.8133 27.0973 79.6745 27.0973ZM79.6912 29.1689C78.2342 29.1689 78.1424 31.1542 78.1424 32.3916C78.1424 33.6317 78.123 36.2788 79.6745 36.2788C81.2066 36.2788 81.2789 34.1433 81.2789 32.842C81.2789 31.9856 81.2428 30.9624 80.9842 30.1504C80.7617 29.4442 80.3196 29.1689 79.6912 29.1689Z" fill="url(#paint4_linear_3_13293)"/>
<path fill-rule="evenodd" clip-rule="evenodd" d="M87.9997 38.1585H86.031C85.8336 38.1446 85.6751 37.9861 85.6751 37.7915L85.6723 27.6423C85.689 27.456 85.8531 27.3114 86.0533 27.3114H87.8857C88.0581 27.3198 88.1999 27.4366 88.2388 27.5951V29.1466H88.275C88.8283 27.7591 89.6041 27.0973 90.9693 27.0973C91.8563 27.0973 92.7211 27.4171 93.2772 28.293C93.7944 29.1049 93.7944 30.4702 93.7944 31.4517V37.8387C93.7722 38.0167 93.6081 38.1585 93.4135 38.1585H91.4309C91.2502 38.1446 91.1 38.0111 91.0806 37.8387V32.3276C91.0806 31.2182 91.2085 29.5943 89.8432 29.5943C89.3622 29.5943 88.9201 29.9169 88.7004 30.4062C88.4223 31.0263 88.3862 31.6436 88.3862 32.3276V37.7915C88.3834 37.9944 88.211 38.1585 87.9997 38.1585Z" fill="url(#paint5_linear_3_13293)"/>
<path fill-rule="evenodd" clip-rule="evenodd" d="M61.6592 33.3119C61.6592 34.0821 61.6787 34.7245 61.2894 35.4085C60.9752 35.9646 60.4747 36.3066 59.9214 36.3066C59.1623 36.3066 58.7174 35.7283 58.7174 34.8746C58.7174 33.1896 60.2272 32.8837 61.6592 32.8837V33.3119ZM63.6529 38.1307C63.5222 38.2475 63.3331 38.2558 63.1858 38.178C62.5295 37.633 62.41 37.3799 62.0513 36.86C60.9669 37.9666 60.1966 38.2975 58.7924 38.2975C57.1269 38.2975 55.8339 37.2715 55.8339 35.2166C55.8339 33.6122 56.7014 32.5195 57.9416 31.9856C59.0149 31.5129 60.5136 31.4295 61.6592 31.2988V31.043C61.6592 30.5731 61.6954 30.0169 61.4173 29.611C61.1782 29.2467 60.7166 29.0966 60.3079 29.0966C59.5543 29.0966 58.8842 29.4831 58.7201 30.2839C58.6868 30.4618 58.5561 30.637 58.3754 30.6453L56.4595 30.4396C56.2983 30.4034 56.1175 30.2727 56.1648 30.0253C56.6041 27.7007 58.7062 27 60.5859 27C61.548 27 62.8048 27.2558 63.5639 27.9843C64.526 28.8825 64.4342 30.0809 64.4342 31.385V34.4659C64.4342 35.3918 64.818 35.7978 65.1794 36.2983C65.3046 36.4762 65.3324 36.6903 65.1711 36.8238C64.7679 37.1603 64.0505 37.7859 63.6557 38.1362L63.6529 38.1307Z" fill="url(#paint6_linear_3_13293)"/>
<path fill-rule="evenodd" clip-rule="evenodd" d="M35.7413 33.3119C35.7413 34.0821 35.7608 34.7245 35.3715 35.4085C35.0573 35.9646 34.5596 36.3066 34.0035 36.3066C33.2444 36.3066 32.8023 35.7282 32.8023 34.8746C32.8023 33.1896 34.3121 32.8837 35.7413 32.8837V33.3119ZM37.735 38.1307C37.6043 38.2475 37.4152 38.2558 37.2679 38.1779C36.6117 37.633 36.4949 37.3799 36.1334 36.8599C35.049 37.9666 34.2815 38.2975 32.8746 38.2975C31.2118 38.2975 29.916 37.2715 29.916 35.2166C29.916 33.6122 30.7863 32.5195 32.0237 31.9856C33.097 31.5129 34.5957 31.4295 35.7413 31.2988V31.043C35.7413 30.573 35.7775 30.0169 35.5022 29.611C35.2603 29.2467 34.7987 29.0966 34.3928 29.0966C33.6392 29.0966 32.9663 29.4831 32.8023 30.2839C32.7689 30.4618 32.6382 30.637 32.4602 30.6453L30.5416 30.4396C30.3804 30.4034 30.2024 30.2727 30.2469 30.0253C30.689 27.7007 32.7884 27 34.668 27C35.6301 27 36.8869 27.2558 37.646 27.9843C38.6081 28.8825 38.5164 30.0809 38.5164 31.385V34.4659C38.5164 35.3918 38.9001 35.7978 39.2616 36.2983C39.3895 36.4762 39.4173 36.6903 39.256 36.8238C38.8528 37.1603 38.1354 37.7859 37.7406 38.1362L37.735 38.1307Z" fill="url(#paint7_linear_3_13293)"/>
</g>
<defs>
<linearGradient id="paint0_linear_3_13293" x1="55.8519" y1="38.6134" x2="55.8519" y2="46.2494" gradientUnits="userSpaceOnUse">
<stop stop-color="#4C4C4D"/>
<stop offset="1" stop-color="#4C4C4D" stop-opacity="0.62"/>
</linearGradient>
<linearGradient id="paint1_linear_3_13293" x1="55.8519" y1="38.6134" x2="55.8519" y2="46.2494" gradientUnits="userSpaceOnUse">
<stop stop-color="#4C4C4D"/>
<stop offset="1" stop-color="#4C4C4D" stop-opacity="0.62"/>
</linearGradient>
<linearGradient id="paint2_linear_3_13293" x1="61.8552" y1="27" x2="61.8552" y2="38.3698" gradientUnits="userSpaceOnUse">
<stop stop-color="#4C4C4D"/>
<stop offset="1" stop-color="#4C4C4D" stop-opacity="0.62"/>
</linearGradient>
<linearGradient id="paint3_linear_3_13293" x1="61.8552" y1="27" x2="61.8552" y2="38.3698" gradientUnits="userSpaceOnUse">
<stop stop-color="#4C4C4D"/>
<stop offset="1" stop-color="#4C4C4D" stop-opacity="0.62"/>
</linearGradient>
<linearGradient id="paint4_linear_3_13293" x1="61.8552" y1="27" x2="61.8552" y2="38.3698" gradientUnits="userSpaceOnUse">
<stop stop-color="#4C4C4D"/>
<stop offset="1" stop-color="#4C4C4D" stop-opacity="0.62"/>
</linearGradient>
<linearGradient id="paint5_linear_3_13293" x1="61.8552" y1="27" x2="61.8552" y2="38.3698" gradientUnits="userSpaceOnUse">
<stop stop-color="#4C4C4D"/>
<stop offset="1" stop-color="#4C4C4D" stop-opacity="0.62"/>
</linearGradient>
<linearGradient id="paint6_linear_3_13293" x1="61.8552" y1="27" x2="61.8552" y2="38.3698" gradientUnits="userSpaceOnUse">
<stop stop-color="#4C4C4D"/>
<stop offset="1" stop-color="#4C4C4D" stop-opacity="0.62"/>
</linearGradient>
<linearGradient id="paint7_linear_3_13293" x1="61.8552" y1="27" x2="61.8552" y2="38.3698" gradientUnits="userSpaceOnUse">
<stop stop-color="#4C4C4D"/>
<stop offset="1" stop-color="#4C4C4D" stop-opacity="0.62"/>
</linearGradient>
<clipPath id="clip0_3_13293">
<rect width="64.1666" height="28" fill="white" transform="translate(29.9165 20)"/>
</clipPath>
</defs>
</svg>
