<svg width="123" height="68" viewBox="0 0 123 68" fill="none" xmlns="http://www.w3.org/2000/svg">
<g clip-path="url(#clip0_3_13313)">
<path d="M38.1006 42.2039C37.1265 42.3749 36.1353 42.4262 35.1099 42.5628L31.9824 33.4027V42.9559C31.0083 43.0584 30.1196 43.1952 29.1968 43.3319V25.8319H31.7945L35.3491 35.7612V25.8319H38.1006V42.2039ZM43.4839 32.2406C44.5435 32.2406 46.1671 32.1893 47.1411 32.1893V34.9236C45.9277 34.9236 44.5093 34.9236 43.4839 34.9749V39.0423C45.0904 38.9398 46.6968 38.803 48.3203 38.7517V41.3834L40.7495 41.9817V25.8319H48.3203V28.5663H43.4839V32.2406ZM58.4887 28.5663H55.6519V41.1444C54.729 41.1444 53.8061 41.1444 52.9176 41.1785V28.5663H50.0807V25.8319H58.4889L58.4887 28.5663ZM62.9321 32.0526H66.6748V34.787H62.9321V40.9906H60.2488V25.8319H67.8882V28.5663H62.9321V32.0526ZM72.3315 38.598C73.8867 38.6321 75.4589 38.7519 76.98 38.8372V41.5374C74.5361 41.3835 72.0923 41.2299 69.5972 41.1785V25.8319H72.3315V38.598ZM79.2871 41.7254C80.1586 41.7768 81.0815 41.8281 81.9701 41.9304V25.8319H79.2871V41.7254ZM93.9502 25.8319L90.4809 34.1547L93.9502 43.3319C92.9247 43.1952 91.8994 43.0072 90.8739 42.8362L88.9087 37.7778L86.9094 42.4262C85.918 42.2552 84.9609 42.2039 83.9699 42.0672L87.4904 34.052L84.3116 25.8319H87.2509L89.0453 30.4291L90.9595 25.8319H93.9502V25.8319Z" fill="url(#paint0_linear_3_13313)"/>
</g>
<defs>
<linearGradient id="paint0_linear_3_13313" x1="61.5735" y1="25.8319" x2="61.5735" y2="43.3319" gradientUnits="userSpaceOnUse">
<stop stop-color="#4C4C4D"/>
<stop offset="1" stop-color="#4C4C4D" stop-opacity="0.62"/>
</linearGradient>
<clipPath id="clip0_3_13313">
<rect width="64.75" height="28" fill="white" transform="translate(29.1968 20)"/>
</clipPath>
</defs>
</svg>
