<svg width="124" height="68" viewBox="0 0 124 68" fill="none" xmlns="http://www.w3.org/2000/svg">
<g clip-path="url(#clip0_3_13298)">
<path d="M31.603 23.5H23.0659V43.9167L31.603 23.5Z" fill="url(#paint0_linear_3_13298)"/>
<path d="M37.6094 23.5H46.1353V43.9167L37.6094 23.5Z" fill="url(#paint1_linear_3_13298)"/>
<path d="M34.6059 31.025L40.0396 43.9168H36.4746L34.8506 39.8123H30.874L34.6059 31.025Z" fill="url(#paint2_linear_3_13298)"/>
<path d="M60.0634 36.4827L61.0701 39.3691C61.1034 39.4414 61.1535 39.4748 61.2425 39.4748H63.1779C63.2836 39.4748 63.3003 39.4247 63.2836 39.3191L59.2848 28.2125C59.2681 28.1236 59.2514 28.1069 59.1624 28.1069H56.7598C56.6931 28.1069 56.6541 28.1569 56.6541 28.2292C56.6208 28.8132 56.5707 28.9912 56.4984 29.1636L52.9334 39.3024C52.9167 39.4248 52.9557 39.4748 53.0558 39.4748H54.7854C54.8911 39.4748 54.9412 39.4414 54.9801 39.3358L55.9311 36.4827H60.0634ZM56.4817 34.5973C57.0045 33.0178 57.6942 30.9933 57.9722 29.8365H57.9889C58.3338 31.049 59.1457 33.4516 59.5128 34.5973H56.4817Z" fill="url(#paint3_linear_3_13298)"/>
<path d="M68.4241 39.6467C69.4641 39.6467 70.5709 39.4576 71.6943 38.9737C71.7833 38.9403 71.8 38.9014 71.8 38.818C71.7666 38.5065 71.7277 38.0561 71.7277 37.7112V27.2554C71.7277 27.1887 71.7277 27.1553 71.6443 27.1553H69.7589C69.6866 27.1553 69.6532 27.1887 69.6532 27.2777V30.8204C69.3585 30.787 69.1527 30.7703 68.908 30.7703C65.8658 30.7703 63.9971 32.7781 63.9971 35.2864C63.9971 38.1951 65.9158 39.6467 68.4241 39.6467ZM69.6532 37.7112C69.3418 37.8113 68.997 37.8503 68.6466 37.8503C67.2673 37.8503 66.1383 37.0717 66.1383 35.1807C66.1383 33.5067 67.3007 32.5167 68.8412 32.5167C69.1527 32.5167 69.4252 32.5501 69.6532 32.6391V37.7112Z" fill="url(#paint4_linear_3_13298)"/>
<path d="M77.8135 30.7712C75.2162 30.7712 73.6089 32.7623 73.6089 35.2205C73.6089 37.4174 74.8881 39.6476 77.7745 39.6476C80.2161 39.6476 81.9291 37.8512 81.9291 35.1649C81.9291 32.7957 80.4775 30.7712 77.8135 30.7712ZM77.7078 32.5176C79.1761 32.5176 79.799 33.7801 79.799 35.2205C79.799 37.0002 78.8813 37.8845 77.8135 37.8845C76.4954 37.8845 75.7167 36.7778 75.7167 35.1816C75.7167 33.5409 76.5454 32.5176 77.7078 32.5176Z" fill="url(#paint5_linear_3_13298)"/>
<path d="M83.8792 27.1553C83.8069 27.1553 83.7568 27.1887 83.7568 27.2777V39.1128C83.7568 39.1628 83.8069 39.2518 83.8792 39.2685C84.7079 39.5243 85.5755 39.6467 86.4709 39.6467C89.0348 39.6467 91.5264 38.0561 91.5264 34.8526C91.5264 32.5334 89.9358 30.7703 87.4442 30.7703C86.8713 30.7703 86.3374 30.8593 85.8702 31.0151L85.848 27.2943C85.848 27.172 85.8146 27.1553 85.6923 27.1553H83.8792ZM89.3963 35.0639C89.3963 36.9827 88.0838 37.8836 86.6656 37.8836C86.3708 37.8836 86.1094 37.867 85.8702 37.7947V32.7447C86.1428 32.6391 86.4709 32.5501 87.0771 32.5501C88.4453 32.5501 89.3963 33.4177 89.3963 35.0639Z" fill="url(#paint6_linear_3_13298)"/>
<path d="M98.5627 35.6877C99.4081 35.6877 100.103 35.671 100.342 35.6154C100.431 35.5987 100.465 35.5653 100.481 35.493C100.532 35.304 100.554 34.9091 100.554 34.4252C100.554 32.779 99.5638 30.7712 97.0055 30.7712C94.3915 30.7712 92.9399 32.9013 92.9399 35.304C92.9399 37.434 94.0634 39.6476 97.2113 39.6476C98.3903 39.6476 99.1523 39.4585 99.8085 39.147C99.8753 39.1137 99.9086 39.058 99.9086 38.9579V37.5175C99.9086 37.434 99.8586 37.4174 99.8085 37.4507C99.1523 37.7288 98.4404 37.8679 97.6617 37.8679C95.8987 37.8679 95.0978 36.8946 95.0478 35.6877H98.5627ZM95.0478 34.1972C95.1868 33.3518 95.7207 32.4342 96.9165 32.4342C98.2346 32.4342 98.5794 33.5409 98.5794 34.0415C98.5794 34.0582 98.5794 34.1305 98.5794 34.1805C98.5071 34.1972 98.2846 34.1972 97.6284 34.1972H95.0478Z" fill="url(#paint7_linear_3_13298)"/>
</g>
<defs>
<linearGradient id="paint0_linear_3_13298" x1="27.3345" y1="23.5" x2="27.3345" y2="43.9167" gradientUnits="userSpaceOnUse">
<stop stop-color="#4C4C4D"/>
<stop offset="1" stop-color="#4C4C4D" stop-opacity="0.62"/>
</linearGradient>
<linearGradient id="paint1_linear_3_13298" x1="41.8723" y1="23.5" x2="41.8723" y2="43.9167" gradientUnits="userSpaceOnUse">
<stop stop-color="#4C4C4D"/>
<stop offset="1" stop-color="#4C4C4D" stop-opacity="0.62"/>
</linearGradient>
<linearGradient id="paint2_linear_3_13298" x1="35.4568" y1="31.025" x2="35.4568" y2="43.9168" gradientUnits="userSpaceOnUse">
<stop stop-color="#4C4C4D"/>
<stop offset="1" stop-color="#4C4C4D" stop-opacity="0.62"/>
</linearGradient>
<linearGradient id="paint3_linear_3_13298" x1="58.1094" y1="28.1069" x2="58.1094" y2="39.4748" gradientUnits="userSpaceOnUse">
<stop stop-color="#4C4C4D"/>
<stop offset="1" stop-color="#4C4C4D" stop-opacity="0.62"/>
</linearGradient>
<linearGradient id="paint4_linear_3_13298" x1="67.8985" y1="27.1553" x2="67.8985" y2="39.6467" gradientUnits="userSpaceOnUse">
<stop stop-color="#4C4C4D"/>
<stop offset="1" stop-color="#4C4C4D" stop-opacity="0.62"/>
</linearGradient>
<linearGradient id="paint5_linear_3_13298" x1="77.769" y1="30.7712" x2="77.769" y2="39.6476" gradientUnits="userSpaceOnUse">
<stop stop-color="#4C4C4D"/>
<stop offset="1" stop-color="#4C4C4D" stop-opacity="0.62"/>
</linearGradient>
<linearGradient id="paint6_linear_3_13298" x1="87.6416" y1="27.1553" x2="87.6416" y2="39.6467" gradientUnits="userSpaceOnUse">
<stop stop-color="#4C4C4D"/>
<stop offset="1" stop-color="#4C4C4D" stop-opacity="0.62"/>
</linearGradient>
<linearGradient id="paint7_linear_3_13298" x1="96.7469" y1="30.7712" x2="96.7469" y2="39.6476" gradientUnits="userSpaceOnUse">
<stop stop-color="#4C4C4D"/>
<stop offset="1" stop-color="#4C4C4D" stop-opacity="0.62"/>
</linearGradient>
<clipPath id="clip0_3_13298">
<rect width="77.5833" height="28" fill="white" transform="translate(23.0654 20)"/>
</clipPath>
</defs>
</svg>
