<svg width="124" height="68" viewBox="0 0 124 68" fill="none" xmlns="http://www.w3.org/2000/svg">
<g clip-path="url(#clip0_3_13289)">
<path fill-rule="evenodd" clip-rule="evenodd" d="M80.0555 32.0165C80.2738 32.3931 80.3452 32.8216 80.3688 33.3033L80.3997 33.9454V38.4352L80.4314 39.0779C80.4947 40.1276 81.2689 40.9038 82.3266 40.9698L82.966 41.0015V33.9454L82.9977 33.3033C83.0239 32.827 83.0947 32.3904 83.3163 32.0111C83.5422 31.6221 83.8665 31.2993 84.2565 31.0752C84.6466 30.851 85.0888 30.7335 85.5386 30.7343C85.9885 30.7351 86.4302 30.8543 86.8195 31.0798C87.2088 31.3054 87.5318 31.6293 87.7563 32.0192C87.9746 32.3958 88.0426 32.8324 88.0689 33.3033L88.1006 33.9434V38.4352L88.1322 39.0779C88.1982 40.133 88.9663 40.9092 90.0274 40.9698L90.6668 41.0015V33.3033C90.6668 31.9421 90.1262 30.6366 89.1638 29.6739C88.2015 28.7111 86.8962 28.17 85.535 28.1695C84.8064 28.1687 84.086 28.3234 83.4221 28.6233C82.7581 28.9232 82.1657 29.3613 81.6846 29.9084C81.2032 29.3615 80.6108 28.9235 79.9469 28.6235C79.2829 28.3236 78.5627 28.1685 77.8342 28.1688C76.7683 28.1688 75.7793 28.4922 74.96 29.0507C74.4601 28.4929 73.3417 28.1688 72.6996 28.1688V41.0015L73.3417 40.9698C74.4156 40.8991 75.1918 40.1438 75.2335 39.0779L75.2679 38.4352V33.9454L75.2996 33.3033C75.3265 32.8189 75.3939 32.3931 75.6128 32.0138C75.8389 31.625 76.163 31.3023 76.5528 31.0779C76.9426 30.8535 77.3844 30.7353 77.8342 30.7351C78.2843 30.7352 78.7264 30.8536 79.1163 31.0785C79.5062 31.3034 79.8301 31.6269 80.0555 32.0165ZM36.1258 40.9705L36.7679 41.0015H46.3922L46.3606 40.3614C46.2736 39.3063 45.5265 38.5356 44.468 38.4669L43.826 38.4352H38.052L45.7502 30.7344L45.7185 30.095C45.6686 29.0292 44.8898 28.2591 43.826 28.2005L43.1839 28.1715L33.5596 28.1688L33.5912 28.8109C33.6755 29.8558 34.4334 30.6428 35.4831 30.7034L36.1258 30.7351H41.8998L34.2016 38.4359L34.2333 39.0779C34.2966 40.1357 35.06 40.9017 36.1258 40.9698V40.9705ZM70.1805 30.0472C70.7764 30.643 71.2492 31.3503 71.5717 32.1288C71.8942 32.9074 72.0602 33.7418 72.0602 34.5845C72.0602 35.4271 71.8942 36.2616 71.5717 37.0401C71.2492 37.8186 70.7764 38.5259 70.1805 39.1217C68.9765 40.3247 67.3442 41.0005 65.6422 41.0005C63.9402 41.0005 62.3079 40.3247 61.1039 39.1217C58.5983 36.6161 58.5983 32.5528 61.1039 30.0472C61.6993 29.4516 62.4062 28.9791 63.1842 28.6567C63.9622 28.3343 64.796 28.1683 65.6382 28.1681C66.4817 28.1675 67.3171 28.3333 68.0965 28.6558C68.8759 28.9783 69.5841 29.4514 70.1805 30.0478V30.0472ZM68.3648 31.8642C69.0865 32.5865 69.4919 33.5658 69.4919 34.5868C69.4919 35.6079 69.0865 36.5871 68.3648 37.3094C67.6425 38.0311 66.6633 38.4365 65.6422 38.4365C64.6212 38.4365 63.6419 38.0311 62.9197 37.3094C62.1979 36.5871 61.7925 35.6079 61.7925 34.5868C61.7925 33.5658 62.1979 32.5865 62.9197 31.8642C63.6419 31.1425 64.6212 30.7371 65.6422 30.7371C66.6633 30.7371 67.6425 31.1425 68.3648 31.8642ZM52.1715 28.1681C53.0137 28.1683 53.8476 28.3345 54.6256 28.657C55.4036 28.9795 56.1105 29.4521 56.7058 30.0478C59.2121 32.5528 59.2121 36.6168 56.7058 39.1217C55.5018 40.3247 53.8695 41.0005 52.1675 41.0005C50.4655 41.0005 48.8332 40.3247 47.6292 39.1217C45.1236 36.6161 45.1236 32.5528 47.6292 30.0472C48.2246 29.4516 48.9315 28.9791 49.7094 28.6567C50.4874 28.3343 51.3213 28.1683 52.1635 28.1681H52.1715ZM54.8901 31.8629C55.612 32.5852 56.0175 33.5646 56.0175 34.5858C56.0175 35.607 55.612 36.5864 54.8901 37.3087C54.1678 38.0304 53.1885 38.4358 52.1675 38.4358C51.1465 38.4358 50.1672 38.0304 49.4449 37.3087C48.7232 36.5864 48.3178 35.6072 48.3178 34.5861C48.3178 33.5651 48.7232 32.5858 49.4449 31.8636C50.1672 31.1419 51.1465 30.7364 52.1675 30.7364C53.1885 30.7364 54.1678 31.1419 54.8901 31.8636V31.8629Z" fill="url(#paint0_linear_3_13289)"/>
</g>
<defs>
<linearGradient id="paint0_linear_3_13289" x1="62.1132" y1="28.1681" x2="62.1132" y2="41.0015" gradientUnits="userSpaceOnUse">
<stop stop-color="#4C4C4D"/>
<stop offset="1" stop-color="#4C4C4D" stop-opacity="0.62"/>
</linearGradient>
<clipPath id="clip0_3_13289">
<rect width="57.1666" height="28" fill="white" transform="translate(33.5596 20)"/>
</clipPath>
</defs>
</svg>
