<svg width="124" height="68" viewBox="0 0 124 68" fill="none" xmlns="http://www.w3.org/2000/svg">
<g clip-path="url(#clip0_3_13285)">
<path d="M33.7463 21.7959C26.9809 21.7959 21.4961 27.2805 21.4961 34.046C21.4961 40.8118 26.9809 46.2959 33.7463 46.2959C40.5125 46.2959 45.9967 40.8118 45.9967 34.046C45.9967 27.281 40.5125 21.7965 33.7462 21.7965L33.7463 21.7959ZM39.3642 39.4641C39.1448 39.8239 38.6737 39.938 38.3139 39.7171C35.4377 37.9603 31.8168 37.5624 27.5527 38.5366C27.1418 38.6302 26.7322 38.3728 26.6385 37.9617C26.5445 37.5507 26.8009 37.1411 27.2129 37.0474C31.8793 35.9813 35.8821 36.4404 39.1111 38.4137C39.471 38.6346 39.5851 39.1042 39.3642 39.4641ZM40.8636 36.1285C40.5871 36.5779 39.9991 36.7198 39.55 36.4433C36.2571 34.4193 31.2377 33.8332 27.3429 35.0154C26.8378 35.168 26.3043 34.8833 26.151 34.3791C25.9989 33.874 26.2837 33.3415 26.7879 33.1879C31.2368 31.838 36.7677 32.4919 40.5491 34.8156C40.9982 35.0921 41.1401 35.6801 40.8636 36.1286V36.1285ZM40.9923 32.6551C37.0441 30.3101 30.5301 30.0944 26.7605 31.2385C26.1552 31.4221 25.5151 31.0804 25.3317 30.4751C25.1482 29.8695 25.4896 29.2298 26.0954 29.0457C30.4226 27.7321 37.6161 27.9859 42.1617 30.6844C42.7074 31.0075 42.8858 31.7107 42.5625 32.2545C42.2407 32.7989 41.5356 32.9784 40.9929 32.6551H40.9923ZM54.8249 33.1045C52.7097 32.6001 52.3337 32.2461 52.3337 31.5023C52.3337 30.7995 52.9949 30.3266 53.9794 30.3266C54.9332 30.3266 55.8782 30.6857 56.87 31.425C56.8992 31.4474 56.9373 31.4563 56.9738 31.4505C57.0119 31.4449 57.044 31.4246 57.066 31.394L58.0987 29.9382C58.1412 29.8782 58.1295 29.7956 58.0724 29.7498C56.8919 28.8029 55.5636 28.3426 54.0101 28.3426C51.7266 28.3426 50.1307 29.7131 50.1307 31.674C50.1307 33.7768 51.5072 34.5214 53.8858 35.0962C55.9089 35.5624 56.2512 35.953 56.2512 36.651C56.2512 37.4249 55.5607 37.9061 54.449 37.9061C53.2143 37.9061 52.2064 37.4892 51.0801 36.515C51.0523 36.4901 51.0142 36.4799 50.9791 36.4813C50.9411 36.4843 50.9074 36.5018 50.884 36.5296L49.7255 37.9076C49.6772 37.9661 49.683 38.051 49.7386 38.1007C51.0493 39.271 52.6614 39.8883 54.4022 39.8883C56.8626 39.8883 58.4528 38.5439 58.4528 36.4623C58.4571 34.7059 57.4054 33.7331 54.8293 33.1064L54.8249 33.1045ZM64.0203 31.0185C62.9539 31.0185 62.0791 31.4386 61.3565 32.2995V31.3305C61.3565 31.254 61.295 31.1917 61.219 31.1917H59.3246C59.2485 31.1917 59.1871 31.254 59.1871 31.3305V42.0972C59.1871 42.1732 59.2485 42.2361 59.3246 42.2361H61.219C61.295 42.2361 61.3565 42.1732 61.3565 42.0972V38.699C62.0791 39.5079 62.9539 39.9044 64.0203 39.9044C66.0025 39.9044 68.0095 38.3786 68.0095 35.4619C68.0124 32.5445 66.0054 31.0184 64.0218 31.0184L64.0203 31.0185ZM65.8064 35.4619C65.8064 36.9465 64.8922 37.9837 63.5815 37.9837C62.2868 37.9837 61.3097 36.8997 61.3097 35.4619C61.3097 34.0239 62.2868 32.9402 63.5815 32.9402C64.8702 32.9401 65.8064 34.0004 65.8064 35.4617V35.4619ZM73.1513 31.0185C70.5987 31.0185 68.599 32.984 68.599 35.4936C68.599 37.9763 70.5855 39.9205 73.1206 39.9205C75.682 39.9205 77.6876 37.9617 77.6876 35.4619C77.6876 32.9705 75.6952 31.0188 73.1513 31.0188V31.0185ZM73.1513 37.9983C71.7938 37.9983 70.7698 36.907 70.7698 35.4611C70.7698 34.0087 71.7587 32.9547 73.1206 32.9547C74.4869 32.9547 75.5167 34.0456 75.5167 35.4929C75.5167 36.945 74.522 37.9983 73.1513 37.9983ZM83.1381 31.1917H81.0536V29.061C81.0536 28.9846 80.9921 28.9223 80.9161 28.9223H79.0217C78.9456 28.9223 78.8827 28.9846 78.8827 29.061V31.1917H77.9728C77.8968 31.1917 77.8353 31.254 77.8353 31.3305V32.9582C77.8353 33.0346 77.8968 33.0971 77.9728 33.0971H78.8827V37.3093C78.8827 39.0106 79.7297 39.8736 81.4017 39.8736C82.0805 39.8736 82.6437 39.7332 83.1747 39.4319C83.2186 39.4085 83.2449 39.3617 83.2449 39.3119V37.7613C83.2449 37.7145 83.22 37.6692 83.1791 37.6443C83.1381 37.618 83.0869 37.6165 83.0445 37.6384C82.6802 37.8213 82.3277 37.9061 81.9327 37.9061C81.3257 37.9061 81.0536 37.6297 81.0536 37.0123V33.0978H83.1381C83.2142 33.0978 83.2756 33.0355 83.2756 32.959V31.3314C83.2785 31.2549 83.2171 31.1926 83.1396 31.1926L83.1381 31.1917ZM90.3996 31.2001V30.9384C90.3996 30.1685 90.6951 29.8251 91.3563 29.8251C91.7513 29.8251 92.0687 29.9035 92.4242 30.022C92.4681 30.0358 92.5134 30.0289 92.5485 30.0027C92.5851 29.9765 92.6056 29.9346 92.6056 29.8901V28.2941C92.6056 28.2331 92.5676 28.1792 92.5076 28.1612C92.1331 28.0495 91.6533 27.935 90.9336 27.935C89.1855 27.935 88.2595 28.9201 88.2595 30.7827V31.1835H87.3496C87.2736 31.1835 87.2107 31.2458 87.2107 31.3222V32.9582C87.2107 33.0346 87.2736 33.0971 87.3496 33.0971H88.2595V39.5928C88.2595 39.6703 88.3224 39.7318 88.3985 39.7318H90.2914C90.3689 39.7318 90.4304 39.6703 90.4304 39.5928V33.0975H92.1989L94.9081 39.5928C94.6009 40.2745 94.2981 40.4105 93.8856 40.4105C93.552 40.4105 93.1995 40.311 92.8411 40.1136C92.8075 40.096 92.7665 40.0931 92.7314 40.1033C92.6948 40.1165 92.6641 40.1428 92.6495 40.1779L92.0073 41.5866C91.9766 41.6539 92.0029 41.7314 92.0673 41.7666C92.7372 42.1293 93.3414 42.2844 94.0889 42.2844C95.4874 42.2844 96.2612 41.632 96.9414 39.8795L100.227 31.3896C100.245 31.3469 100.239 31.2987 100.212 31.2608C100.187 31.2232 100.145 31.2005 100.1 31.2005H98.1278C98.0678 31.2005 98.0152 31.2381 97.9961 31.2935L95.976 37.0621L93.7642 31.2897C93.7437 31.236 93.6925 31.2005 93.6354 31.2005H90.3996V31.2001ZM86.1896 31.1917H84.2952C84.2191 31.1917 84.1562 31.254 84.1562 31.3305V39.5928C84.1562 39.6703 84.2191 39.7318 84.2952 39.7318H86.1896C86.2657 39.7318 86.3286 39.6703 86.3286 39.5928V31.3311C86.3286 31.2546 86.2671 31.1923 86.1896 31.1923V31.1917ZM85.2534 27.4295C84.5029 27.4295 83.8944 28.0368 83.8944 28.7871C83.8944 29.5378 84.5029 30.1459 85.2534 30.1459C86.0038 30.1459 86.6109 29.5378 86.6109 28.7871C86.6109 28.037 86.0023 27.4295 85.2534 27.4295ZM101.845 33.8484C101.096 33.8484 100.512 33.2464 100.512 32.5154C100.512 31.7845 101.103 31.1756 101.852 31.1756C102.601 31.1756 103.185 31.7774 103.185 32.5078C103.185 33.2388 102.594 33.8484 101.845 33.8484ZM101.852 31.3082C101.169 31.3082 100.653 31.8509 100.653 32.5154C100.653 33.1797 101.166 33.7151 101.845 33.7151C102.528 33.7151 103.044 33.1728 103.044 32.5078C103.044 31.8436 102.531 31.3082 101.852 31.3082ZM102.148 32.6449L102.525 33.1727H102.206L101.867 32.6885H101.576V33.1727H101.309V31.7736H101.933C102.259 31.7736 102.472 31.94 102.472 32.2199C102.474 32.4493 102.341 32.5895 102.149 32.6449H102.148ZM101.922 32.0137H101.576V32.4562H101.922C102.095 32.4562 102.199 32.3715 102.199 32.2347C102.199 32.0908 102.095 32.0137 101.922 32.0137Z" fill="url(#paint0_linear_3_13285)"/>
</g>
<defs>
<linearGradient id="paint0_linear_3_13285" x1="62.3405" y1="21.7959" x2="62.3405" y2="46.2959" gradientUnits="userSpaceOnUse">
<stop stop-color="#4C4C4D"/>
<stop offset="1" stop-color="#4C4C4D" stop-opacity="0.62"/>
</linearGradient>
<clipPath id="clip0_3_13285">
<rect width="81.6667" height="28" fill="white" transform="translate(21.4521 20)"/>
</clipPath>
</defs>
</svg>
