<svg width="123" height="68" viewBox="0 0 123 68" fill="none" xmlns="http://www.w3.org/2000/svg">
<g clip-path="url(#clip0_3_13281)">
<path d="M33.4292 40.6471L39.1776 31.7024H34.1102C34.0672 31.4447 34.0488 31.1625 34.0488 30.8496C34.0488 30.549 34.0672 30.2729 34.1102 30.0214H42.3126L42.4169 30.2975L36.6255 39.2606H42.0549C42.0978 39.5428 42.1162 39.8373 42.1162 40.1318C42.1162 40.414 42.0978 40.6839 42.0549 40.9416H33.5335L33.4292 40.6471Z" fill="url(#paint0_linear_3_13281)"/>
<path d="M50.0181 33.7454C50.0181 32.9049 49.8033 32.3283 49.38 31.997C48.9567 31.6718 48.3371 31.5062 47.5273 31.5062C47.0304 31.5062 46.5641 31.543 46.1347 31.6227C45.6991 31.7025 45.2819 31.8007 44.8647 31.9295C44.5948 31.4632 44.4598 30.8988 44.4598 30.2485C44.9445 30.0952 45.4721 29.9725 46.0549 29.8866C46.6377 29.8007 47.196 29.7577 47.7359 29.7577C49.153 29.7577 50.2328 30.0829 50.9751 30.727C51.7113 31.3712 52.0855 32.408 52.0855 33.8252V40.6595C51.5886 40.7699 50.9874 40.8926 50.2757 41.0092C49.5641 41.1319 48.8402 41.1871 48.104 41.1871C47.4107 41.1871 46.7788 41.1257 46.2206 40.9969C45.6623 40.8681 45.1837 40.6656 44.7911 40.3773C44.3985 40.0951 44.0979 39.7331 43.8831 39.2914C43.6684 38.8497 43.5641 38.3159 43.5641 37.6963C43.5641 37.089 43.6868 36.5491 43.9384 36.089C44.1838 35.6289 44.5212 35.2424 44.9506 34.9417C45.3739 34.635 45.8647 34.408 46.423 34.2608C46.9751 34.1135 47.558 34.0338 48.1715 34.0338C48.6254 34.0338 48.9997 34.046 49.288 34.0644C49.5764 34.0829 49.8217 34.1135 50.0242 34.1381V33.7454H50.0181ZM50.0181 35.8129C49.8033 35.7822 49.5334 35.7577 49.2083 35.727C48.8831 35.6963 48.607 35.6841 48.38 35.6841C47.4966 35.6841 46.8279 35.8497 46.3678 36.1749C45.9077 36.5 45.6745 36.9969 45.6745 37.6656C45.6745 38.089 45.7543 38.4264 45.9077 38.6656C46.061 38.9049 46.2574 39.089 46.4905 39.2178C46.7236 39.3466 46.9813 39.4264 47.2696 39.4509C47.5518 39.4816 47.8218 39.4939 48.0794 39.4939C48.4046 39.4939 48.742 39.4754 49.0917 39.4386C49.4414 39.4018 49.7481 39.3528 50.0181 39.2791V35.8129Z" fill="url(#paint1_linear_3_13281)"/>
<path d="M54.3861 30.0219C54.5272 29.9912 54.6744 29.9728 54.8217 29.9605C54.9689 29.9483 55.1223 29.9421 55.2818 29.9421C55.4229 29.9421 55.5701 29.9483 55.7296 29.9605C55.883 29.9728 56.0364 29.9973 56.1775 30.0219C56.1897 30.0526 56.2082 30.1384 56.2327 30.2857C56.2511 30.4329 56.2756 30.5924 56.294 30.7642C56.3124 30.936 56.337 31.0955 56.3554 31.255C56.3738 31.4145 56.3861 31.5127 56.3861 31.5556C56.5272 31.3286 56.6989 31.1078 56.8953 30.893C57.0916 30.6783 57.3308 30.4881 57.6069 30.3164C57.883 30.1446 58.1959 30.0096 58.5456 29.9114C58.8952 29.8133 59.2817 29.7642 59.7051 29.7642C60.3431 29.7642 60.9382 29.8685 61.4842 30.0832C62.0302 30.2979 62.4964 30.6231 62.8891 31.0709C63.2817 31.5188 63.5823 32.0893 63.8032 32.7765C64.024 33.4636 64.1345 34.2795 64.1345 35.2182C64.1345 37.0954 63.6253 38.5617 62.613 39.6169C61.5946 40.6721 60.159 41.2058 58.3002 41.2058C57.9873 41.2058 57.6683 41.1874 57.3431 41.1445C57.018 41.1016 56.7296 41.0463 56.4904 40.9727V45.9788C56.3186 46.0095 56.1407 46.0279 55.9444 46.0402C55.7542 46.0524 55.5763 46.0586 55.4229 46.0586C55.2695 46.0586 55.0916 46.0524 54.9014 46.0402C54.7112 46.0279 54.5333 46.0034 54.3799 45.9788V30.0219H54.3861ZM56.4965 39.1568C56.7664 39.2549 57.0425 39.3286 57.3247 39.3715C57.6069 39.4144 57.975 39.4329 58.4351 39.4329C58.9443 39.4329 59.4167 39.3531 59.84 39.1875C60.2633 39.0218 60.6314 38.7703 60.9382 38.4329C61.2449 38.0893 61.4842 37.6599 61.6621 37.1445C61.84 36.6292 61.9259 36.0096 61.9259 35.304C61.9259 34.1691 61.7173 33.2673 61.3001 32.5985C60.883 31.9298 60.1959 31.5986 59.2449 31.5986C58.8891 31.5986 58.5517 31.6599 58.2204 31.7887C57.8953 31.9176 57.6008 32.1078 57.3492 32.3654C57.0916 32.6231 56.8891 32.9421 56.7296 33.3347C56.5701 33.7274 56.4965 34.1875 56.4965 34.7274V39.1568Z" fill="url(#paint2_linear_3_13281)"/>
<path d="M66.7602 31.6778H65.3737C65.343 31.5613 65.3246 31.4324 65.3124 31.2852C65.3001 31.138 65.294 30.9907 65.294 30.8496C65.294 30.7085 65.3001 30.5613 65.3124 30.414C65.3246 30.2668 65.3492 30.1318 65.3737 30.0214H68.8277V40.9477C68.6743 40.9784 68.4964 40.9968 68.3062 41.0091C68.116 41.0213 67.9381 41.0275 67.7847 41.0275C67.6436 41.0275 67.478 41.0213 67.2817 41.0091C67.0915 40.9968 66.9136 40.9723 66.7602 40.9477V31.6778Z" fill="url(#paint3_linear_3_13281)"/>
<path d="M73.3614 36.0032C73.392 37.1934 73.6988 38.0707 74.2877 38.6229C74.8767 39.175 75.7479 39.4511 76.8951 39.4511C77.9012 39.4511 78.8644 39.2732 79.7724 38.9173C79.8889 39.132 79.9809 39.3897 80.0484 39.6965C80.1221 40.0032 80.1589 40.3038 80.1773 40.6044C79.711 40.8007 79.1957 40.9541 78.6313 41.0523C78.073 41.1504 77.4472 41.1995 76.7663 41.1995C75.7724 41.1995 74.9196 41.0584 74.208 40.7823C73.4963 40.5063 72.9135 40.1136 72.4534 39.6106C71.9933 39.1075 71.6559 38.5124 71.4411 37.8192C71.2264 37.1321 71.1221 36.3775 71.1221 35.5493C71.1221 34.7394 71.2264 33.9848 71.4289 33.2793C71.6313 32.5738 71.9503 31.9665 72.3736 31.445C72.797 30.9297 73.3368 30.5125 73.981 30.2119C74.6252 29.9051 75.392 29.7517 76.2693 29.7517C77.0239 29.7517 77.6804 29.8806 78.2509 30.1383C78.8214 30.3959 79.2938 30.7456 79.6803 31.1935C80.0607 31.6413 80.3552 32.175 80.5515 32.7885C80.7478 33.4082 80.8521 34.0769 80.8521 34.8008C80.8521 34.9971 80.846 35.2118 80.8276 35.4266C80.8153 35.6474 80.7969 35.8376 80.7846 35.991H73.3614V36.0032ZM78.7724 34.4266C78.7724 34.0278 78.7172 33.6474 78.6129 33.2855C78.5086 32.9235 78.3491 32.6106 78.1466 32.3407C77.938 32.0708 77.6804 31.856 77.3613 31.6904C77.0423 31.5247 76.662 31.445 76.2202 31.445C75.3552 31.445 74.6926 31.7088 74.2264 32.2303C73.7663 32.7579 73.4841 33.4879 73.3859 34.4266H78.7724Z" fill="url(#paint4_linear_3_13281)"/>
<path d="M83.1834 30.0214C83.3368 29.9907 83.4902 29.9723 83.6313 29.9601C83.7724 29.9478 83.9196 29.9417 84.0791 29.9417C84.2325 29.9417 84.392 29.9478 84.5454 29.9601C84.6987 29.9723 84.846 29.9969 84.9687 30.0214C85.0116 30.2361 85.0546 30.5122 85.0975 30.8619C85.1405 31.2116 85.1589 31.5061 85.1589 31.7453C85.4595 31.2607 85.8521 30.8435 86.3429 30.4877C86.8337 30.1318 87.4595 29.9539 88.2263 29.9539C88.3429 29.9539 88.4594 29.9601 88.576 29.9662C88.6987 29.9723 88.7969 29.9846 88.8828 29.9969C88.9134 30.1257 88.9318 30.2607 88.9441 30.4018C88.9564 30.5429 88.9625 30.6901 88.9625 30.8496C88.9625 31.0214 88.9502 31.1993 88.9318 31.3834C88.9134 31.5674 88.8828 31.7453 88.8582 31.9171C88.7417 31.8864 88.6251 31.8742 88.5085 31.8742C88.3858 31.8742 88.2938 31.8742 88.2202 31.8742C87.8398 31.8742 87.4717 31.9294 87.122 32.0337C86.7723 32.138 86.4595 32.3281 86.1834 32.5981C85.9073 32.868 85.6865 33.2361 85.5208 33.7085C85.3552 34.1748 85.2754 34.7821 85.2754 35.5183V40.9477C85.1221 40.9784 84.9441 40.9968 84.754 41.0091C84.5638 41.0213 84.3859 41.0275 84.2325 41.0275C84.0791 41.0275 83.9012 41.0213 83.711 41.0091C83.5208 40.9968 83.3368 40.9723 83.165 40.9477V30.0214H83.1834Z" fill="url(#paint5_linear_3_13281)"/>
<path d="M70.8337 23.5923H68.7724L70.2325 22.1321C70.1159 21.9726 69.9871 21.8193 69.8521 21.6782C69.711 21.5371 69.5638 21.4082 69.3981 21.2978L67.938 22.7579V20.6966C67.7478 20.6659 67.5515 20.6475 67.3491 20.6475H67.3429C67.1405 20.6475 66.9442 20.6659 66.754 20.6966V22.7579L65.2939 21.2978C65.1344 21.4144 64.981 21.5432 64.8399 21.6782C64.6988 21.8193 64.5761 21.9665 64.4595 22.1321L65.9258 23.5923H63.8644C63.8644 23.5923 63.8154 23.9788 63.8154 24.1812C63.8154 24.3837 63.8338 24.58 63.8644 24.7702H65.9258L64.4657 26.2303C64.6927 26.5493 64.9749 26.8315 65.3 27.0646L66.7601 25.6045V27.6658C66.9503 27.6965 67.1466 27.7149 67.3491 27.7149H67.3552C67.5577 27.7149 67.754 27.6965 67.9442 27.6658V25.6045L69.4043 27.0646C69.5638 26.9481 69.7172 26.8192 69.8583 26.6843C69.9994 26.5432 70.1282 26.3959 70.2386 26.2303L68.7785 24.7702H70.8398C70.8705 24.58 70.8889 24.3837 70.8889 24.1812V24.1751C70.8828 23.9788 70.8705 23.7824 70.8337 23.5923ZM68.2325 24.1873C68.2325 24.4511 68.1834 24.7027 68.0975 24.9358C67.8644 25.0217 67.6129 25.0708 67.3491 25.0708C67.0853 25.0708 66.8337 25.0217 66.6006 24.9358C66.5147 24.7027 66.4656 24.4511 66.4656 24.1873V24.1812C66.4656 23.9174 66.5147 23.6659 66.6006 23.4327C66.8337 23.3469 67.0853 23.2978 67.3491 23.2978C67.6129 23.2978 67.8644 23.3469 68.0975 23.4327C68.1834 23.6659 68.2325 23.9174 68.2325 24.1873Z" fill="url(#paint6_linear_3_13281)"/>
</g>
<defs>
<linearGradient id="paint0_linear_3_13281" x1="61.1959" y1="20.6475" x2="61.1959" y2="46.0586" gradientUnits="userSpaceOnUse">
<stop stop-color="#4C4C4D"/>
<stop offset="1" stop-color="#4C4C4D" stop-opacity="0.62"/>
</linearGradient>
<linearGradient id="paint1_linear_3_13281" x1="61.1959" y1="20.6475" x2="61.1959" y2="46.0586" gradientUnits="userSpaceOnUse">
<stop stop-color="#4C4C4D"/>
<stop offset="1" stop-color="#4C4C4D" stop-opacity="0.62"/>
</linearGradient>
<linearGradient id="paint2_linear_3_13281" x1="61.1959" y1="20.6475" x2="61.1959" y2="46.0586" gradientUnits="userSpaceOnUse">
<stop stop-color="#4C4C4D"/>
<stop offset="1" stop-color="#4C4C4D" stop-opacity="0.62"/>
</linearGradient>
<linearGradient id="paint3_linear_3_13281" x1="61.1959" y1="20.6475" x2="61.1959" y2="46.0586" gradientUnits="userSpaceOnUse">
<stop stop-color="#4C4C4D"/>
<stop offset="1" stop-color="#4C4C4D" stop-opacity="0.62"/>
</linearGradient>
<linearGradient id="paint4_linear_3_13281" x1="61.1959" y1="20.6475" x2="61.1959" y2="46.0586" gradientUnits="userSpaceOnUse">
<stop stop-color="#4C4C4D"/>
<stop offset="1" stop-color="#4C4C4D" stop-opacity="0.62"/>
</linearGradient>
<linearGradient id="paint5_linear_3_13281" x1="61.1959" y1="20.6475" x2="61.1959" y2="46.0586" gradientUnits="userSpaceOnUse">
<stop stop-color="#4C4C4D"/>
<stop offset="1" stop-color="#4C4C4D" stop-opacity="0.62"/>
</linearGradient>
<linearGradient id="paint6_linear_3_13281" x1="61.1959" y1="20.6475" x2="61.1959" y2="46.0586" gradientUnits="userSpaceOnUse">
<stop stop-color="#4C4C4D"/>
<stop offset="1" stop-color="#4C4C4D" stop-opacity="0.62"/>
</linearGradient>
<clipPath id="clip0_3_13281">
<rect width="56" height="28" fill="white" transform="translate(33.4287 20)"/>
</clipPath>
</defs>
</svg>
