<svg width="124" height="68" viewBox="0 0 124 68" fill="none" xmlns="http://www.w3.org/2000/svg">
<g clip-path="url(#clip0_3_13309)">
<path d="M50.3018 40.2851V31.7946H50.4531L56.6333 40.2851H58.5781V27.8168H56.4172V36.2858H56.2659L50.0857 27.8168H48.1409V40.2851H50.3018ZM64.6935 40.4776C67.5459 40.4776 69.2963 38.6383 69.2963 35.5587C69.2963 32.5004 67.5459 30.6398 64.6935 30.6398C61.8627 30.6398 60.0908 32.5004 60.0908 35.5587C60.1124 38.6383 61.8411 40.4776 64.6935 40.4776ZM64.6935 38.6811C63.1809 38.6811 62.3165 37.5476 62.3165 35.5587C62.3165 33.5911 63.1809 32.4362 64.6935 32.4362C66.2062 32.4362 67.0705 33.5911 67.0705 35.5587C67.0705 37.5476 66.2062 38.6811 64.6935 38.6811ZM71.2627 28.5225V30.8964H69.7501V32.6073H71.2627V37.7615C71.2627 39.6007 72.1271 40.3279 74.3312 40.3279C74.7418 40.3279 75.1524 40.2851 75.4765 40.2209V38.5528C75.2172 38.5742 75.0443 38.5956 74.7418 38.5956C73.8342 38.5956 73.4236 38.1892 73.4236 37.2482V32.6073H75.4765V30.8964H73.4236V28.5225H71.2627ZM76.773 40.2851H78.934V30.8323H76.773V40.2851ZM77.8535 29.271C78.5666 29.271 79.15 28.6936 79.15 27.9878C79.15 27.2607 78.5666 26.6833 77.8535 26.6833C77.1404 26.6833 76.5569 27.2607 76.5569 27.9878C76.5569 28.6936 77.1404 29.271 77.8535 29.271ZM84.8549 40.4776C87.7073 40.4776 89.4576 38.6383 89.4576 35.5587C89.4576 32.5004 87.7073 30.6398 84.8549 30.6398C82.0241 30.6398 80.2521 32.5004 80.2521 35.5587C80.2521 38.6383 81.9808 40.4776 84.8549 40.4776ZM84.8549 38.6811C83.3422 38.6811 82.4779 37.5476 82.4779 35.5587C82.4779 33.5911 83.3422 32.4362 84.8549 32.4362C86.3459 32.4362 87.2319 33.5911 87.2319 35.5587C87.2103 37.5476 86.3459 38.6811 84.8549 38.6811ZM90.7326 40.2851H92.8935V34.7888C92.8935 33.3986 93.7146 32.5218 94.9896 32.5218C96.3077 32.5218 96.9128 33.2489 96.9128 34.6818V40.2851H99.0737V34.1685C99.0737 31.9016 97.9068 30.6398 95.7891 30.6398C94.3629 30.6398 93.4121 31.2814 92.9583 32.3507H92.807V30.8323H90.711C90.7326 30.8323 90.7326 40.2851 90.7326 40.2851Z" fill="url(#paint0_linear_3_13309)"/>
<path fill-rule="evenodd" clip-rule="evenodd" d="M27.4214 27.0187C28.0503 27.5261 28.2778 27.486 29.4554 27.4059L40.5488 26.7383C40.7897 26.7383 40.5889 26.498 40.5086 26.4713L38.662 25.1494C38.3141 24.8824 37.8323 24.5619 36.9357 24.642L26.2037 25.4298C25.8156 25.4699 25.7353 25.6702 25.8959 25.817L27.4214 27.0187ZM28.0905 29.5957V41.2388C28.0905 41.8663 28.3982 42.0933 29.1075 42.0533L41.2982 41.3456C42.0074 41.3056 42.0877 40.8783 42.0877 40.3709V28.8079C42.0877 28.3005 41.887 28.0201 41.4587 28.0602L28.7194 28.8079C28.251 28.848 28.0905 29.0883 28.0905 29.5957ZM40.1206 30.2232C40.2009 30.5704 40.1206 30.9309 39.7727 30.971L39.1839 31.0911V39.6899C38.6754 39.957 38.207 40.1172 37.8056 40.1172C37.1766 40.1172 37.016 39.9169 36.5477 39.3294L32.7071 33.3076V39.1291L33.9249 39.3962C33.9249 39.3962 33.9249 40.1039 32.948 40.1039L30.2449 40.2641C30.1646 40.1039 30.2449 39.7166 30.5126 39.6365L31.2218 39.4362V31.7454L30.2449 31.6653C30.1646 31.3181 30.3654 30.8107 30.914 30.7707L33.8178 30.5704L37.8189 36.659V31.2781L36.8019 31.1579C36.7216 30.7306 37.0428 30.4102 37.4309 30.3701L40.1206 30.2232ZM25.3071 24.3616L36.4808 23.5472C37.8457 23.427 38.207 23.5071 39.0634 24.1347L42.6229 26.6315C43.2117 27.0588 43.4125 27.179 43.4125 27.6463V41.359C43.4125 42.2135 43.1047 42.7209 42.0074 42.801L29.0406 43.5888C28.2109 43.6288 27.8228 43.5087 27.3946 42.9612L24.7584 39.5564C24.2901 38.9289 24.0894 38.4615 24.0894 37.9141V25.7236C24.0894 25.0159 24.4105 24.4418 25.3071 24.3616Z" fill="url(#paint1_linear_3_13309)"/>
</g>
<defs>
<linearGradient id="paint0_linear_3_13309" x1="61.5815" y1="23.5" x2="61.5815" y2="43.5958" gradientUnits="userSpaceOnUse">
<stop stop-color="#4C4C4D"/>
<stop offset="1" stop-color="#4C4C4D" stop-opacity="0.62"/>
</linearGradient>
<linearGradient id="paint1_linear_3_13309" x1="61.5815" y1="23.5" x2="61.5815" y2="43.5958" gradientUnits="userSpaceOnUse">
<stop stop-color="#4C4C4D"/>
<stop offset="1" stop-color="#4C4C4D" stop-opacity="0.62"/>
</linearGradient>
<clipPath id="clip0_3_13309">
<rect width="75.25" height="28" fill="white" transform="translate(24.0894 20)"/>
</clipPath>
</defs>
</svg>
