<svg width="38" height="39" viewBox="0 0 38 39" fill="none" xmlns="http://www.w3.org/2000/svg">
<g filter="url(#filter0_d_605_7)">
<path d="M19 21.6471C15.8812 21.6471 13.353 19.1188 13.353 16C13.353 12.8812 15.8812 10.3529 19 10.3529C22.1188 10.3529 24.6471 12.8812 24.6471 16C24.6471 19.1188 22.1188 21.6471 19 21.6471Z" fill="#AE9AFF"/>
<path d="M8.10548 18.2821C6.48683 18.5623 5.37733 20.0973 5.99867 21.5912C6.86615 23.6768 8.2501 25.5349 10.0443 26.987C12.6099 29.0631 15.8458 30.1725 19.1701 30.1156C22.4945 30.0586 25.689 28.839 28.1793 26.6761C29.9207 25.1636 31.2378 23.2591 32.0306 21.1451C32.5985 19.6309 31.435 18.1348 29.8074 17.9102C28.1798 17.6857 26.7185 18.8487 25.9145 20.2562C25.4787 21.019 24.913 21.7111 24.2353 22.2998C22.8065 23.5408 20.9736 24.2405 19.0663 24.2732C17.1589 24.3058 15.3023 23.6694 13.8303 22.4781C13.132 21.913 12.5421 21.2407 12.0794 20.4932C11.226 19.1142 9.72414 18.0019 8.10548 18.2821Z" fill="#AE9AFF"/>
<path d="M33.0084 17.4048C33.0805 16.8399 33.1176 16.2644 33.1176 15.6805C33.1176 8.05998 26.797 1.88235 19 1.88235C11.203 1.88235 4.88232 8.05998 4.88232 15.6805C4.88232 16.4299 4.94345 17.1653 5.06111 17.8824C5.70956 17.0147 6.72163 16.3954 7.8148 16.207C8.99757 16.0031 10.0725 16.2835 10.9814 16.8076C10.9277 16.4394 10.8999 16.0631 10.8999 15.6805C10.8999 11.3082 14.5265 7.76375 19 7.76375C23.4735 7.76375 27.1 11.3082 27.1 15.6805C27.1 15.9687 27.0842 16.2534 27.0535 16.5337C27.9432 15.9788 29.0077 15.6617 30.1972 15.8252C31.2962 15.9761 32.3294 16.5602 33.0084 17.4048Z" fill="#5429FF"/>
</g>
<defs>
<filter id="filter0_d_605_7" x="-1" y="0" width="40" height="40" filterUnits="userSpaceOnUse" color-interpolation-filters="sRGB">
<feFlood flood-opacity="0" result="BackgroundImageFix"/>
<feColorMatrix in="SourceAlpha" type="matrix" values="0 0 0 0 0 0 0 0 0 0 0 0 0 0 0 0 0 0 127 0" result="hardAlpha"/>
<feOffset dy="4"/>
<feGaussianBlur stdDeviation="2"/>
<feComposite in2="hardAlpha" operator="out"/>
<feColorMatrix type="matrix" values="0 0 0 0 0 0 0 0 0 0 0 0 0 0 0 0 0 0 0.25 0"/>
<feBlend mode="normal" in2="BackgroundImageFix" result="effect1_dropShadow_605_7"/>
<feBlend mode="normal" in="SourceGraphic" in2="effect1_dropShadow_605_7" result="shape"/>
</filter>
</defs>
</svg>
