<svg width="80" height="14" viewBox="0 0 80 14" fill="none" xmlns="http://www.w3.org/2000/svg">
<path d="M7 0L9.38641 3.71539L13.6574 4.83688L10.8613 8.25461L11.1145 12.6631L7 11.06L2.8855 12.6631L3.13871 8.25461L0.342604 4.83688L4.61359 3.71539L7 0Z" fill="#FBA333"/>
<path d="M23.5 0L25.8864 3.71539L30.1574 4.83688L27.3613 8.25461L27.6145 12.6631L23.5 11.06L19.3855 12.6631L19.6387 8.25461L16.8426 4.83688L21.1136 3.71539L23.5 0Z" fill="#FBA333"/>
<path d="M40 0L42.3864 3.71539L46.6574 4.83688L43.8613 8.25461L44.1145 12.6631L40 11.06L35.8855 12.6631L36.1387 8.25461L33.3426 4.83688L37.6136 3.71539L40 0Z" fill="#FBA333"/>
<path d="M56.5 0L58.8864 3.71539L63.1574 4.83688L60.3613 8.25461L60.6145 12.6631L56.5 11.06L52.3855 12.6631L52.6387 8.25461L49.8426 4.83688L54.1136 3.71539L56.5 0Z" fill="#FBA333"/>
<path d="M73 0L75.3864 3.71539L79.6574 4.83688L76.8613 8.25461L77.1145 12.6631L73 11.06L68.8855 12.6631L69.1387 8.25461L66.3426 4.83688L70.6136 3.71539L73 0Z" fill="#FBA333"/>
</svg>
