<svg xmlns="http://www.w3.org/2000/svg" width="99" height="99" viewBox="0 0 99 99" fill="none">
  <g filter="url(#filter0_d_32_4318)">
    <circle cx="49.5003" cy="49.6966" r="36.4977" transform="rotate(180 49.5003 49.6966)" fill="white"/>
  </g>
  <path d="M37.5835 47.8164C37.049 48.3509 37.049 49.2175 37.5835 49.752L46.2936 58.4621C46.8281 58.9966 47.6947 58.9966 48.2292 58.4621C48.7637 57.9276 48.7637 57.061 48.2292 56.5265L40.4868 48.7842L48.2292 41.0418C48.7637 40.5074 48.7637 39.6408 48.2292 39.1063C47.6947 38.5718 46.8281 38.5718 46.2936 39.1063L37.5835 47.8164ZM61.3623 47.4155L38.5512 47.4155L38.5512 50.1528L61.3623 50.1528L61.3623 47.4155Z" fill="#0A6A56" fill-opacity="0.3"/>
  <defs>
    <filter id="filter0_d_32_4318" x="0.502441" y="0.69873" width="97.9956" height="97.9956" filterUnits="userSpaceOnUse" color-interpolation-filters="sRGB">
      <feFlood flood-opacity="0" result="BackgroundImageFix"/>
      <feColorMatrix in="SourceAlpha" type="matrix" values="0 0 0 0 0 0 0 0 0 0 0 0 0 0 0 0 0 0 127 0" result="hardAlpha"/>
      <feMorphology radius="0.5" operator="dilate" in="SourceAlpha" result="effect1_dropShadow_32_4318"/>
      <feOffset/>
      <feGaussianBlur stdDeviation="6"/>
      <feColorMatrix type="matrix" values="0 0 0 0 0 0 0 0 0 0 0 0 0 0 0 0 0 0 0.15 0"/>
      <feBlend mode="normal" in2="BackgroundImageFix" result="effect1_dropShadow_32_4318"/>
      <feBlend mode="normal" in="SourceGraphic" in2="effect1_dropShadow_32_4318" result="shape"/>
    </filter>
  </defs>
</svg>