<svg xmlns="http://www.w3.org/2000/svg" width="99" height="99" viewBox="0 0 99 99" fill="none">
  <g filter="url(#filter0_d_32_4318)">
    <circle cx="49.5003" cy="49.6966" r="36.4977" transform="rotate(180 49.5003 49.6966)" fill="white"/>
  </g>
  <path d="M61.3623 47.8164C61.8968 48.3509 61.8968 49.2175 61.3623 49.752L52.6522 58.4621C52.1177 58.9966 51.2511 58.9966 50.7166 58.4621C50.1821 57.9276 50.1821 57.061 50.7166 56.5265L58.459 48.7842L50.7166 41.0418C50.1821 40.5074 50.1821 39.6408 50.7166 39.1063C51.2511 38.5718 52.1177 38.5718 52.6522 39.1063L61.3623 47.8164ZM37.5835 47.4155L60.3946 47.4155L60.3946 50.1528L37.5835 50.1528L37.5835 47.4155Z" fill="#0A6A56" fill-opacity="0.3"/>
  <defs>
    <filter id="filter0_d_32_4318" x="0.502441" y="0.69873" width="97.9956" height="97.9956" filterUnits="userSpaceOnUse" color-interpolation-filters="sRGB">
      <feFlood flood-opacity="0" result="BackgroundImageFix"/>
      <feColorMatrix in="SourceAlpha" type="matrix" values="0 0 0 0 0 0 0 0 0 0 0 0 0 0 0 0 0 0 127 0" result="hardAlpha"/>
      <feMorphology radius="0.5" operator="dilate" in="SourceAlpha" result="effect1_dropShadow_32_4318"/>
      <feOffset/>
      <feGaussianBlur stdDeviation="6"/>
      <feColorMatrix type="matrix" values="0 0 0 0 0 0 0 0 0 0 0 0 0 0 0 0 0 0 0.15 0"/>
      <feBlend mode="normal" in2="BackgroundImageFix" result="effect1_dropShadow_32_4318"/>
      <feBlend mode="normal" in="SourceGraphic" in2="effect1_dropShadow_32_4318" result="shape"/>
    </filter>
  </defs>
</svg>
