<svg width="37" height="36" viewBox="0 0 37 36" fill="none" xmlns="http://www.w3.org/2000/svg">
<path d="M35.3552 17.7557C35.3552 27.1446 27.7441 34.7557 18.3552 34.7557M35.3552 17.7557C35.3552 8.3669 27.7441 0.755737 18.3552 0.755737M35.3552 17.7557H1.35522M18.3552 34.7557C8.96638 34.7557 1.35522 27.1446 1.35522 17.7557M18.3552 34.7557C22.6074 30.1005 25.0239 24.0593 25.1552 17.7557C25.0239 11.4522 22.6074 5.41094 18.3552 0.755737M18.3552 34.7557C14.103 30.1005 11.6865 24.0593 11.5552 17.7557C11.6865 11.4522 14.103 5.41094 18.3552 0.755737M1.35522 17.7557C1.35522 8.3669 8.96638 0.755737 18.3552 0.755737" stroke="black" stroke-width="1.46089" stroke-linecap="round" stroke-linejoin="round"/>
</svg>
