<svg width="39" height="26" viewBox="0 0 39 26" fill="none" xmlns="http://www.w3.org/2000/svg">
<path fill-rule="evenodd" clip-rule="evenodd" d="M23.5766 4.98924C23.5766 7.29132 21.8761 9.1559 19.7766 9.1559C17.6771 9.1559 15.9766 7.29132 15.9766 4.98924C15.9766 2.68715 17.6771 0.822571 19.7766 0.822571C21.8761 0.822571 23.5766 2.68715 23.5766 4.98924ZM21.6766 4.98924C21.6766 5.54177 21.4764 6.07167 21.1201 6.46238C20.7638 6.85308 20.2805 7.07257 19.7766 7.07257C19.2727 7.07257 18.7894 6.85308 18.4331 6.46238C18.0768 6.07167 17.8766 5.54177 17.8766 4.98924C17.8766 4.4367 18.0768 3.9068 18.4331 3.5161C18.7894 3.1254 19.2727 2.9059 19.7766 2.9059C20.2805 2.9059 20.7638 3.1254 21.1201 3.5161C21.4764 3.9068 21.6766 4.4367 21.6766 4.98924ZM14.0766 6.55174C14.0766 7.79494 13.6262 8.98722 12.8245 9.8663C12.0228 10.7454 10.9354 11.2392 9.80161 11.2392C9.24018 11.2394 8.68422 11.1182 8.16549 10.8827C7.64677 10.6472 7.17545 10.3019 6.77845 9.8666C6.38146 9.4313 6.06657 8.9145 5.85177 8.34573C5.63698 7.77695 5.52649 7.16735 5.52661 6.55174C5.52661 3.96215 7.43991 1.86424 9.80161 1.86424C12.1633 1.86424 14.0766 3.96215 14.0766 6.55174ZM12.1766 6.55174C12.1766 7.99132 11.1145 9.1559 9.80161 9.1559C9.48969 9.15604 9.18079 9.08878 8.89259 8.95795C8.60439 8.82713 8.34252 8.63531 8.12195 8.39347C7.90139 8.15162 7.72645 7.86448 7.60714 7.54847C7.48783 7.23246 7.42649 6.89376 7.42661 6.55174C7.42661 5.11215 8.48871 3.94757 9.80161 3.94757C11.1145 3.94757 12.1766 5.11215 12.1766 6.55174ZM0.776611 19.0049C0.776611 15.2257 7.10646 13.3226 10.2766 13.3226C11.0376 13.3226 11.9809 13.4319 12.9746 13.6517C14.203 12.6038 16.616 11.2392 19.7766 11.2392C22.9373 11.2392 25.3503 12.6038 26.5786 13.6517C27.5723 13.433 28.5157 13.3226 29.2766 13.3226C32.4468 13.3226 38.7766 15.2257 38.7766 19.0038V25.8226H0.776611V19.0049ZM2.67661 19.0049C2.67661 18.758 2.76591 18.4299 3.16301 17.9903C3.57816 17.5319 4.23461 17.0694 5.09816 16.6559C6.83761 15.8226 8.95136 15.4059 10.2766 15.4059C11.6019 15.4059 13.7175 15.8226 15.4541 16.6559C16.3186 17.0694 16.9751 17.533 17.3902 17.9903C17.7873 18.4299 17.8766 18.758 17.8766 19.0038V23.7392H2.67661V19.0049ZM24.0991 14.4111C22.7529 13.6915 21.2743 13.3192 19.7766 13.3226C17.9954 13.3226 16.5162 13.8382 15.4541 14.4111C17.7721 15.3455 19.7766 16.8778 19.7766 19.0049C19.7766 16.8778 21.7811 15.3455 24.0991 14.4111ZM22.163 17.9903C21.7659 18.4299 21.6766 18.758 21.6766 19.0038V23.7392H36.8766V19.0038C36.8766 18.758 36.7873 18.4299 36.3902 17.9903C35.9751 17.5319 35.3186 17.0694 34.4551 16.6559C32.7156 15.8226 30.6019 15.4059 29.2766 15.4059C27.9514 15.4059 25.8357 15.8226 24.0991 16.6559C23.2346 17.0694 22.5782 17.533 22.163 17.9903ZM29.7516 11.2392C32.1133 11.2392 34.0266 9.14132 34.0266 6.55174C34.0266 3.96215 32.1133 1.86424 29.7516 1.86424C29.1902 1.8641 28.6342 1.98525 28.1155 2.22077C27.5968 2.45629 27.1254 2.80157 26.7285 3.23687C26.3315 3.67217 26.0166 4.18897 25.8018 4.75775C25.587 5.32652 25.4765 5.93613 25.4766 6.55174C25.4766 7.79494 25.927 8.98722 26.7287 9.8663C27.5304 10.7454 28.6178 11.2392 29.7516 11.2392ZM29.7516 9.1559C31.0645 9.1559 32.1266 7.99132 32.1266 6.55174C32.1266 5.11215 31.0645 3.94757 29.7516 3.94757C29.4397 3.94743 29.1308 4.0147 28.8426 4.14552C28.5544 4.27635 28.2925 4.46816 28.072 4.71001C27.8514 4.95186 27.6765 5.23899 27.5571 5.555C27.4378 5.87102 27.3765 6.20971 27.3766 6.55174C27.3766 7.99132 28.4387 9.1559 29.7516 9.1559Z" fill="black"/>
</svg>
