<svg width="319" height="362" viewBox="0 0 319 362" fill="none" xmlns="http://www.w3.org/2000/svg">
<rect width="319" height="362" fill="#0A6A56"/>
<path d="M186.108 241.393C158.648 259.311 131.792 272.379 110.594 279.041C99.9863 282.375 90.8737 284.079 83.8481 284.024C76.758 283.969 72.1876 282.137 70.0584 278.874C67.9293 275.611 68.093 270.689 70.898 264.178C73.6775 257.725 78.9071 250.07 86.2308 241.703C100.865 224.984 123.643 205.664 151.102 187.746C178.562 169.828 205.419 156.76 226.616 150.099C237.224 146.765 246.337 145.061 253.363 145.116C260.453 145.171 265.023 147.003 267.152 150.266C269.281 153.529 269.118 158.45 266.313 164.962C263.533 171.414 258.304 179.069 250.98 187.436C236.346 204.156 213.568 223.475 186.108 241.393Z" stroke="white" stroke-opacity="0.3" stroke-width="2.78512"/>
<path d="M167.845 213.403C140.385 231.322 113.528 244.39 92.3308 251.051C81.7226 254.385 72.6101 256.089 65.5844 256.034C58.4944 255.979 53.9239 254.147 51.7947 250.884C49.6656 247.621 49.8293 242.7 52.6343 236.188C55.4138 229.735 60.6435 222.081 67.9672 213.713C82.6013 196.994 105.379 177.675 132.839 159.757C160.299 141.839 187.155 128.77 208.353 122.109C218.961 118.775 228.073 117.071 235.099 117.126C242.189 117.181 246.759 119.013 248.889 122.276C251.018 125.539 250.854 130.46 248.049 136.972C245.27 143.425 240.04 151.079 232.716 159.447C218.082 176.166 195.304 195.485 167.845 213.403Z" stroke="white" stroke-opacity="0.3" stroke-width="2.78512"/>
</svg>
