<svg width="35" height="34" viewBox="0 0 35 34" fill="none" xmlns="http://www.w3.org/2000/svg">
<g clip-path="url(#clip0_55_3848)">
<path d="M5.91028 0.778076L4.20056 2.52282L6.74449 5.12132L8.45178 3.37658L5.91028 0.778076ZM28.2228 0.778076L25.6788 3.37658L27.3873 5.12132L29.9301 2.52406L28.2228 0.778076ZM17.0659 1.55242C16.6652 1.55738 16.2596 1.58096 15.8516 1.63183C15.8395 1.63183 15.8273 1.62935 15.8152 1.63183C10.8901 2.20887 6.97035 6.27539 6.28913 11.2863C5.74513 15.3193 7.37228 18.9763 10.0838 21.3316C11.1929 22.2989 11.9431 23.6264 12.2088 25.0916V32.5371H14.9773C15.3999 33.278 16.171 33.7781 17.0659 33.7781C17.9608 33.7781 18.7319 33.278 19.1545 32.5371H21.9231V27.5734H22.0372V26.0992C22.0372 24.28 22.9625 22.4459 24.4658 21.0201C26.4766 18.9626 27.9945 16.0402 27.9945 12.6835C27.9945 6.55336 23.0572 1.49533 17.0659 1.55242ZM17.0659 4.03427C21.7591 3.96726 25.5659 7.89356 25.5659 12.6835C25.5659 15.282 24.3881 17.5703 22.7573 19.2356L22.7961 19.2754C21.1755 20.8026 20.1276 22.8601 19.8333 25.0928H14.522C14.2548 22.9659 13.3623 20.9072 11.6757 19.4305C9.53006 17.5691 8.25142 14.7646 8.67885 11.5977C9.20949 7.6888 12.3132 4.54553 16.1163 4.11493C16.4303 4.07019 16.7466 4.04368 17.0635 4.03551L17.0659 4.03427ZM0.065918 12.6835V15.1654H3.70878V12.6835H0.065918ZM30.4231 12.6835V15.1654H34.0659V12.6835H30.4231ZM6.74449 22.7276L4.20178 25.3249L5.91028 27.0709L8.45056 24.4724L6.74449 22.7276ZM27.3873 22.7276L25.6801 24.4724L28.2216 27.0709L29.9301 25.3249L27.3873 22.7276ZM14.6373 27.5747H19.4945V30.0565H14.6373V27.5747Z" fill="black"/>
</g>
<defs>
<clipPath id="clip0_55_3848">
<rect width="34" height="33" fill="white" transform="translate(0.065918 0.255737)"/>
</clipPath>
</defs>
</svg>
