<svg xmlns="http://www.w3.org/2000/svg" width="144" height="143" viewBox="0 0 144 143" fill="none">
  <rect x="1.5" y="1" width="141" height="141" rx="23" fill="#C5870F" fill-opacity="0.15"/>
  <rect x="1.5" y="1" width="141" height="141" rx="23" stroke="#C5870F" stroke-width="2"/>
  <path d="M87.3 105.3V46.1C87.3 44.1373 86.5204 42.2551 85.1326 40.8674C83.7448 39.4796 81.8626 38.7 79.9 38.7H65.1C63.1374 38.7 61.2552 39.4796 59.8674 40.8674C58.4796 42.2551 57.7 44.1373 57.7 46.1V105.3M42.9 53.5H102.1C106.187 53.5 109.5 56.813 109.5 60.9V97.8999C109.5 101.987 106.187 105.3 102.1 105.3H42.9C38.8131 105.3 35.5 101.987 35.5 97.8999V60.9C35.5 56.813 38.8131 53.5 42.9 53.5Z" stroke="#C5870F" stroke-width="5.55" stroke-linecap="round" stroke-linejoin="round"/>
</svg>