<svg width="56" height="56" viewBox="0 0 56 56" fill="none" xmlns="http://www.w3.org/2000/svg">
<rect x="0.5" y="0.5" width="55" height="55" rx="27.5" fill="#1703FF" fill-opacity="0.15"/>
<rect x="0.5" y="0.5" width="55" height="55" rx="27.5" stroke="#1703FF"/>
<path d="M27.5859 39.6602C27.7734 39.6602 28.0664 39.5898 28.3594 39.4375C35.0273 35.9453 37.1719 34.1992 37.1719 29.9922V21.1562C37.1719 19.9492 36.6562 19.5625 35.6719 19.1523C34.3008 18.5898 29.918 16.9961 28.5586 16.5273C28.2422 16.4219 27.9141 16.3633 27.5859 16.3633C27.2578 16.3633 26.9297 16.4336 26.625 16.5273C25.2539 16.9727 20.8711 18.6016 19.5 19.1523C18.5273 19.5508 18 19.9492 18 21.1562V29.9922C18 34.1992 20.2617 35.7461 26.8125 39.4375C27.1172 39.6016 27.3984 39.6602 27.5859 39.6602ZM22.3008 28.3984C22.3008 28.2578 22.3711 28.082 22.5 27.9297L29.1211 19.6211C29.625 18.9883 30.4688 19.4102 30.1641 20.1953L27.9844 26.0547H32.0742C32.3906 26.0547 32.625 26.2773 32.625 26.5938C32.625 26.7344 32.5547 26.9102 32.4258 27.0625L25.8047 35.3711C25.3008 36.0039 24.4688 35.582 24.7617 34.8086L26.9531 28.9375H22.8516C22.5469 28.9375 22.3008 28.7148 22.3008 28.3984Z" fill="#1703FF"/>
</svg>
