<svg xmlns="http://www.w3.org/2000/svg" width="37" height="35" viewBox="0 0 37 35" fill="none">
  <path d="M18.5507 11.2796C18.5507 9.66873 17.9108 8.12384 16.7717 6.98478C15.6327 5.84573 14.0878 5.20581 12.4769 5.20581H3.36621V27.9825H13.9954C15.2035 27.9825 16.3622 28.4625 17.2165 29.3168C18.0708 30.1711 18.5507 31.3297 18.5507 32.5379M18.5507 11.2796V32.5379M18.5507 11.2796C18.5507 9.66873 19.1906 8.12384 20.3297 6.98478C21.4687 5.84573 23.0136 5.20581 24.6245 5.20581H33.7352V27.9825H23.106C21.8979 27.9825 20.7392 28.4625 19.8849 29.3168C19.0306 30.1711 18.5507 31.3297 18.5507 32.5379" stroke="#04AA15" stroke-width="2.27767" stroke-linecap="round" stroke-linejoin="round"/>
</svg>