<svg xmlns="http://www.w3.org/2000/svg" width="37" height="37" viewBox="0 0 37 37" fill="none">
  <path d="M5.29475 10.7005L18.5508 18.3687L31.8069 10.7005M18.5508 33.6595V18.3535M32.2168 24.4273V12.2797C32.2163 11.7471 32.0757 11.2241 31.8092 10.763C31.5427 10.3019 31.1596 9.91906 30.6984 9.65278L20.0693 3.57899C19.6076 3.31244 19.0839 3.17212 18.5508 3.17212C18.0177 3.17212 17.494 3.31244 17.0324 3.57899L6.40321 9.65278C5.942 9.91906 5.55893 10.3019 5.29241 10.763C5.02589 11.2241 4.88531 11.7471 4.88477 12.2797V24.4273C4.88531 24.9598 5.02589 25.4829 5.29241 25.944C5.55893 26.405 5.942 26.7879 6.40321 27.0542L17.0324 33.128C17.494 33.3945 18.0177 33.5349 18.5508 33.5349C19.0839 33.5349 19.6076 33.3945 20.0693 33.128L30.6984 27.0542C31.1596 26.7879 31.5427 26.405 31.8092 25.944C32.0757 25.4829 32.2163 24.9598 32.2168 24.4273Z" stroke="#AA049A" stroke-width="2.27767" stroke-linecap="round" stroke-linejoin="round"/>
</svg>