<svg width="25" height="24" viewBox="0 0 25 24" fill="none" xmlns="http://www.w3.org/2000/svg">
<g id="briefcase">
<path id="Icon" d="M16.5 21V5C16.5 4.46957 16.2893 3.96086 15.9142 3.58579C15.5391 3.21071 15.0304 3 14.5 3H10.5C9.96957 3 9.46086 3.21071 9.08579 3.58579C8.71071 3.96086 8.5 4.46957 8.5 5V21M4.5 7H20.5C21.6046 7 22.5 7.89543 22.5 9V19C22.5 20.1046 21.6046 21 20.5 21H4.5C3.39543 21 2.5 20.1046 2.5 19V9C2.5 7.89543 3.39543 7 4.5 7Z" stroke="#04AA15" stroke-width="1.5" stroke-linecap="round" stroke-linejoin="round"/>
</g>
</svg>
