<svg xmlns="http://www.w3.org/2000/svg" width="37" height="37" viewBox="0 0 37 37" fill="none">
  <path d="M24.623 32.0196V7.7244C24.623 6.91896 24.3031 6.14652 23.7335 5.57699C23.164 5.00746 22.3916 4.6875 21.5861 4.6875H15.5123C14.7069 4.6875 13.9345 5.00746 13.3649 5.57699C12.7954 6.14652 12.4754 6.91896 12.4754 7.7244V32.0196M6.40164 10.7613H30.6968C32.3741 10.7613 33.7337 12.121 33.7337 13.7982V28.9827C33.7337 30.6599 32.3741 32.0196 30.6968 32.0196H6.40164C4.72441 32.0196 3.36475 30.6599 3.36475 28.9827V13.7982C3.36475 12.121 4.72441 10.7613 6.40164 10.7613Z" stroke="#ED0000" stroke-width="2.27767" stroke-linecap="round" stroke-linejoin="round"/>
</svg>