<svg width="56" height="56" viewBox="0 0 56 56" fill="none" xmlns="http://www.w3.org/2000/svg">
<rect x="0.5" y="0.5" width="55" height="55" rx="27.5" fill="#8A0595" fill-opacity="0.15"/>
<rect x="0.5" y="0.5" width="55" height="55" rx="27.5" stroke="#8A0595"/>
<path d="M18.6721 34.6668L18.9996 35.9918C19.4144 37.7143 20.3205 38.5977 22.1216 38.5977H33.8783C35.6905 38.5977 36.5856 37.7364 37.0113 35.9918L37.3388 34.6668H18.6721ZM18.3119 33.154H37.7099L39.7621 24.6519L38.867 24.133L33.8347 27.843C33.4635 28.108 33.2125 28.0086 33.005 27.7105L28.2674 20.4671L27.7435 20.445L22.9622 27.7436C22.7766 28.0307 22.5583 28.1191 22.1871 27.854L17.253 24.2103L16.2051 24.4863L18.3119 33.154ZM16.609 26.8602C18.0499 26.8602 19.207 25.6788 19.207 24.2103C19.207 22.7748 18.0499 21.5823 16.609 21.5823C15.168 21.5823 14 22.7638 14 24.2103C14 25.6788 15.1789 26.8602 16.609 26.8602ZM28.0055 22.2669C29.4355 22.2669 30.6035 21.0854 30.6035 19.6279C30.6035 18.1925 29.4355 17 28.0055 17C26.5536 17 25.3965 18.1815 25.3965 19.6279C25.3965 21.0854 26.5645 22.2669 28.0055 22.2669ZM39.391 26.8602C40.8211 26.8602 42 25.6788 42 24.2103C42 22.7638 40.832 21.5823 39.391 21.5823C37.961 21.5823 36.793 22.7748 36.793 24.2103C36.793 25.6788 37.961 26.8602 39.391 26.8602Z" fill="#8A0595"/>
</svg>
