<svg xmlns="http://www.w3.org/2000/svg" width="20" height="21" viewBox="0 0 20 21" fill="none">
  <g clip-path="url(#clip0_35_4597)">
    <path d="M20 10.541C20 5.01816 15.5229 0.541016 10 0.541016C4.47715 0.541016 0 5.01816 0 10.541C0 15.5322 3.65684 19.6693 8.4375 20.4195V13.4316H5.89844V10.541H8.4375V8.33789C8.4375 5.83164 9.93047 4.44727 12.2146 4.44727C13.3084 4.44727 14.4531 4.64258 14.4531 4.64258V7.10352H13.1922C11.95 7.10352 11.5625 7.87441 11.5625 8.66602V10.541H14.3359L13.8926 13.4316H11.5625V20.4195C16.3432 19.6693 20 15.5322 20 10.541Z" fill="#3446EB"/>
  </g>
  <defs>
    <clipPath id="clip0_35_4597">
      <rect width="20" height="20" fill="white" transform="translate(0 0.541016)"/>
    </clipPath>
  </defs>
</svg>