<svg xmlns="http://www.w3.org/2000/svg" width="143" height="143" viewBox="0 0 143 143" fill="none">
  <rect x="1" y="1" width="141" height="141" rx="23" fill="#951788" fill-opacity="0.15"/>
  <rect x="1" y="1" width="141" height="141" rx="23" stroke="#951788" stroke-width="2"/>
  <path d="M108.5 71.5C108.5 91.9345 91.9345 108.5 71.5 108.5M108.5 71.5C108.5 51.0655 91.9345 34.5 71.5 34.5M108.5 71.5H34.5M71.5 108.5C51.0655 108.5 34.5 91.9345 34.5 71.5M71.5 108.5C80.7547 98.3681 86.0142 85.2195 86.3 71.5C86.0142 57.7805 80.7547 44.6319 71.5 34.5M71.5 108.5C62.2453 98.3681 56.9858 85.2195 56.7 71.5C56.9858 57.7805 62.2453 44.6319 71.5 34.5M34.5 71.5C34.5 51.0655 51.0655 34.5 71.5 34.5" stroke="#951788" stroke-width="3.10489" stroke-linecap="round" stroke-linejoin="round"/>
</svg>