<svg width="36" height="34" viewBox="0 0 36 34" fill="none" xmlns="http://www.w3.org/2000/svg">
<path d="M24.6038 32V5.33333C24.6038 4.44928 24.2527 3.60143 23.6275 2.97631C23.0024 2.35119 22.1546 2 21.2705 2H14.6038C13.7198 2 12.8719 2.35119 12.2468 2.97631C11.6217 3.60143 11.2705 4.44928 11.2705 5.33333V32M4.60384 8.66667H31.2705C33.1115 8.66667 34.6038 10.1591 34.6038 12V28.6667C34.6038 30.5076 33.1115 32 31.2705 32H4.60384C2.76289 32 1.27051 30.5076 1.27051 28.6667V12C1.27051 10.1591 2.76289 8.66667 4.60384 8.66667Z" stroke="#101828" stroke-width="2.5" stroke-linecap="round" stroke-linejoin="round"/>
</svg>
