<svg width="53" height="52" viewBox="0 0 53 52" fill="none" xmlns="http://www.w3.org/2000/svg">
<rect x="1" y="0.5" width="51" height="51" rx="25.5" fill="#04AA15" fill-opacity="0.15"/>
<rect x="1" y="0.5" width="51" height="51" rx="25.5" stroke="#04AA15"/>
<path d="M28.81 22L34.55 31.94M24.19 22H35.67M21.88 26L27.62 16.06M24.19 30L18.45 20.06M28.81 30H17.33M31.12 26L25.38 35.94M36.5 26C36.5 31.5228 32.0228 36 26.5 36C20.9772 36 16.5 31.5228 16.5 26C16.5 20.4772 20.9772 16 26.5 16C32.0228 16 36.5 20.4772 36.5 26Z" stroke="#04AA15" stroke-width="1.5" stroke-linecap="round" stroke-linejoin="round"/>
</svg>
