<svg width="52" height="52" viewBox="0 0 52 52" fill="none" xmlns="http://www.w3.org/2000/svg">
<rect x="0.5" y="0.5" width="51" height="51" rx="25.5" fill="#04AA15" fill-opacity="0.15"/>
<rect x="0.5" y="0.5" width="51" height="51" rx="25.5" stroke="#04AA15"/>
<path d="M21.5 18.2099L26 20.8099L30.5 18.2099M21.5 33.7899V28.5999L17 25.9999M35 25.9999L30.5 28.5999V33.7899M17.27 20.9599L26 26.0099L34.73 20.9599M26 36.0799V25.9999M35 29.9999V21.9999C34.9996 21.6492 34.9071 21.3047 34.7315 21.0011C34.556 20.6974 34.3037 20.4453 34 20.2699L27 16.2699C26.696 16.0944 26.3511 16.002 26 16.002C25.6489 16.002 25.304 16.0944 25 16.2699L18 20.2699C17.6963 20.4453 17.444 20.6974 17.2685 21.0011C17.0929 21.3047 17.0004 21.6492 17 21.9999V29.9999C17.0004 30.3506 17.0929 30.6951 17.2685 30.9987C17.444 31.3024 17.6963 31.5545 18 31.7299L25 35.7299C25.304 35.9054 25.6489 35.9979 26 35.9979C26.3511 35.9979 26.696 35.9054 27 35.7299L34 31.7299C34.3037 31.5545 34.556 31.3024 34.7315 30.9987C34.9071 30.6951 34.9996 30.3506 35 29.9999Z" stroke="#04AA15" stroke-width="1.5" stroke-linecap="round" stroke-linejoin="round"/>
</svg>
