<svg width="53" height="52" viewBox="0 0 53 52" fill="none" xmlns="http://www.w3.org/2000/svg">
<rect x="1" y="0.5" width="51" height="51" rx="25.5" fill="#04AA15" fill-opacity="0.15"/>
<rect x="1" y="0.5" width="51" height="51" rx="25.5" stroke="#04AA15"/>
<path d="M26.5 21C26.5 19.9391 26.0786 18.9217 25.3284 18.1716C24.5783 17.4214 23.5609 17 22.5 17H16.5V32H23.5C24.2956 32 25.0587 32.3161 25.6213 32.8787C26.1839 33.4413 26.5 34.2044 26.5 35M26.5 21V35M26.5 21C26.5 19.9391 26.9214 18.9217 27.6716 18.1716C28.4217 17.4214 29.4391 17 30.5 17H36.5V32H29.5C28.7044 32 27.9413 32.3161 27.3787 32.8787C26.8161 33.4413 26.5 34.2044 26.5 35" stroke="#04AA15" stroke-width="1.5" stroke-linecap="round" stroke-linejoin="round"/>
</svg>
