<svg xmlns="http://www.w3.org/2000/svg" width="20" height="21" viewBox="0 0 20 21" fill="none">
  <g clip-path="url(#clip0_35_4603)">
    <path d="M18.5195 0.541016H1.47656C0.660156 0.541016 0 1.18555 0 1.98242V19.0957C0 19.8926 0.660156 20.541 1.47656 20.541H18.5195C19.3359 20.541 20 19.8926 20 19.0996V1.98242C20 1.18555 19.3359 0.541016 18.5195 0.541016ZM5.93359 17.584H2.96484V8.03711H5.93359V17.584ZM4.44922 6.73633C3.49609 6.73633 2.72656 5.9668 2.72656 5.01758C2.72656 4.06836 3.49609 3.29883 4.44922 3.29883C5.39844 3.29883 6.16797 4.06836 6.16797 5.01758C6.16797 5.96289 5.39844 6.73633 4.44922 6.73633ZM17.043 17.584H14.0781V12.9434C14.0781 11.8379 14.0586 10.4121 12.5352 10.4121C10.9922 10.4121 10.7578 11.6191 10.7578 12.8652V17.584H7.79688V8.03711H10.6406V9.3418H10.6797C11.0742 8.5918 12.043 7.79883 13.4844 7.79883C16.4883 7.79883 17.043 9.77539 17.043 12.3457V17.584Z" fill="#0845E2"/>
  </g>
  <defs>
    <clipPath id="clip0_35_4603">
      <rect width="20" height="20" fill="white" transform="translate(0 0.541016)"/>
    </clipPath>
  </defs>
</svg>