<svg width="56" height="56" viewBox="0 0 56 56" fill="none" xmlns="http://www.w3.org/2000/svg">
<rect x="0.5" y="0.5" width="55" height="55" rx="27.5" fill="#DE0000" fill-opacity="0.15"/>
<rect x="0.5" y="0.5" width="55" height="55" rx="27.5" stroke="#DE0000"/>
<path d="M24.5386 34.9684C28.5068 33.8763 30.2051 30.7396 29.0863 26.5109L27.5811 20.763C27.1706 19.2193 26.1725 18.6609 24.6352 19.0715L16.6586 21.231C15.1132 21.658 14.5418 22.6434 14.9523 24.2199L16.4494 29.9595C17.5521 34.1802 20.5705 36.0523 24.5386 34.9684ZM23.782 32.0288C22.0997 32.4722 20.4658 31.8892 19.6046 30.4933C19.4355 30.2388 19.5804 29.9842 19.9024 30.0089C20.9729 30.0992 22.2447 29.9103 23.1622 29.6558C24.0637 29.4176 25.2388 28.9414 26.1323 28.3091C26.3979 28.112 26.6636 28.2516 26.6474 28.5883C26.5911 30.2306 25.4723 31.5526 23.782 32.0288ZM19.7253 26.6341C19.1216 26.8064 19.0411 27.217 18.7836 27.2581C18.6628 27.2827 18.518 27.1431 18.4455 26.905C18.2523 26.2071 18.687 25.4598 19.3792 25.2874C20.0795 25.115 20.7958 25.5337 20.9729 26.2071C21.0453 26.4534 20.981 26.6423 20.8522 26.6915C20.5544 26.7982 20.2726 26.4862 19.7253 26.6341ZM24.6352 25.2792C24.0315 25.4598 23.951 25.8622 23.6934 25.895C23.5727 25.9196 23.4278 25.7801 23.3554 25.5501C23.1622 24.8604 23.5969 24.105 24.2891 23.9325C24.9974 23.7437 25.7057 24.1707 25.8828 24.8522C25.9552 25.1067 25.8909 25.2874 25.7621 25.3367C25.4723 25.4434 25.1825 25.1232 24.6352 25.2792ZM40.1536 23.3577L32.1851 21.1818C30.7685 20.7958 29.7704 21.2228 29.3599 22.5038L29.2633 22.8569L30.1488 26.2235C31.0341 29.5819 30.3098 32.423 28.2492 34.2623C29.038 35.5925 30.4385 36.5861 32.2898 37.0869C36.2418 38.1626 39.2441 36.2904 40.3549 32.0699L41.8761 26.3384C42.2785 24.7865 41.699 23.7765 40.1536 23.3577ZM32.0403 28.3337C31.4849 28.1942 31.1549 27.6194 31.3078 27.0364C31.4607 26.4698 32.0242 26.1331 32.5795 26.2892C33.1349 26.4452 33.4649 27.0282 33.3201 27.5947C33.1671 28.1613 32.6037 28.4898 32.0403 28.3337ZM36.765 29.6229C36.2177 29.4751 35.8877 28.8921 36.0406 28.3173C36.1855 27.7508 36.7489 27.4223 37.3043 27.5783C37.8677 27.7179 38.1897 28.3009 38.0448 28.8757C37.8919 29.4423 37.3284 29.7789 36.765 29.6229ZM33.3764 32.776C32.5393 32.5379 31.7344 32.5297 30.7041 32.7596C30.3821 32.8335 30.189 32.5625 30.358 32.2916C31.0502 31.183 32.4507 30.7232 33.811 31.1092C35.2196 31.4704 36.1774 32.5707 36.2257 33.8845C36.2418 34.213 35.944 34.3526 35.7025 34.1309C34.9057 33.3919 34.2216 32.9977 33.3764 32.776Z" fill="#DE0000"/>
</svg>
