<svg width="56" height="56" viewBox="0 0 56 56" fill="none" xmlns="http://www.w3.org/2000/svg">
<rect x="0.5" y="0.5" width="55" height="55" rx="27.5" fill="#FBA333" fill-opacity="0.15"/>
<rect x="0.5" y="0.5" width="55" height="55" rx="27.5" stroke="#FBA333"/>
<path d="M28.148 41.4375C32.273 41.4375 35.6011 38.1094 35.6011 33.9961C35.6011 29.8711 32.273 26.543 28.148 26.543C24.0347 26.543 20.7066 29.8711 20.7066 33.9961C20.7066 38.1094 24.0347 41.4375 28.148 41.4375ZM26.0269 37.8281C25.5816 38.1562 25.1128 37.8164 25.2886 37.3008L26.1323 34.7812L23.9761 33.2461C23.5659 32.9414 23.6948 32.3672 24.2573 32.3672L26.9058 32.3906L27.7144 29.8594C27.8784 29.3438 28.4409 29.3438 28.605 29.8594L29.4136 32.3906L32.062 32.3672C32.6245 32.3672 32.7417 32.9531 32.3433 33.2344L30.187 34.7812L31.0308 37.3008C31.2066 37.8164 30.7378 38.1562 30.2925 37.8281L28.1597 36.2695L26.0269 37.8281ZM21.0113 28.418C22.1597 26.9648 23.7417 25.8633 25.5581 25.3242L20.2495 15.7852L17.1675 20.4844C16.9566 20.7891 16.9449 21.1289 17.1324 21.4336L21.0113 28.418ZM25.523 21.3281H30.7847L34.3589 15H21.9488L25.523 21.3281ZM30.7495 25.3242C32.5777 25.8633 34.148 26.9648 35.2964 28.418L39.187 21.4336C39.3628 21.1289 39.3511 20.7891 39.1402 20.4844L36.0581 15.7852L30.7495 25.3242Z" fill="#FBA333"/>
</svg>
