<svg xmlns:xlink="http://www.w3.org/1999/xlink" width="60" height="60" viewBox="0 0 60 60" fill="none" xmlns="http://www.w3.org/2000/svg"><path fill-rule="evenodd" clip-rule="evenodd" d="M11.4049 2.9752H37.19C38.0116 2.9752 38.6776 2.30918 38.6776 1.4876C38.6776 0.666021 38.0116 0 37.19 0H10.9091C9.53977 0 8.42974 1.11003 8.42974 2.47933V17.5764L1.04954 22.7859C0.391399 23.2505 0 24.0059 0 24.8115V57.5207C0 58.89 1.11004 60 2.47933 60H57.5205C58.8898 60 59.9999 58.89 59.9999 57.5207V26.4868C59.9999 24.3552 57.488 23.2172 55.8856 24.6229L52.066 27.8242V22.8021C52.066 21.9805 51.4 21.3145 50.5784 21.3145C49.7568 21.3145 49.0908 21.9805 49.0908 22.8021V30.2401C49.0908 30.2656 49.0915 30.291 49.0927 30.3162L30.2843 46.0802L11.4049 29.0236V18.365C11.4051 18.3523 11.4051 18.3396 11.4049 18.3269V2.9752ZM8.42974 21.2181L5.24984 23.4628L8.42974 26.3357V21.2181ZM23.284 43.7729C23.2591 43.7943 23.2333 43.815 23.2066 43.835L5.62021 57.0248H54.8755L37.4608 43.9637L31.9071 48.6143C30.9458 49.4575 29.5009 49.4314 28.5708 48.5539L23.284 43.7729ZM39.8036 42.0019L57.0247 54.9177V27.5813L39.8036 42.0019ZM2.9752 55.2896L21.0384 41.7422L2.9752 25.4071V55.2896Z" fill="#03AA14"></path><circle cx="46.6115" cy="11.4049" r="9.42147" fill="#03AA14"></circle><path d="M46.7807 15.868C47.6859 15.868 48.6475 15.6441 49.0878 15.4202L48.7884 14.5452C48.4538 14.6692 47.6436 14.8965 46.8405 14.8965C44.5088 14.8965 43.2478 13.6633 43.2478 11.431C43.2478 9.35033 44.4524 7.90005 46.7525 7.90005C48.6299 7.90005 50.0283 8.9404 50.0247 10.8971C50.0283 12.3198 49.8028 12.9605 49.2393 12.9605C48.9399 12.9605 48.7637 12.7263 48.7602 12.3852V9.10575H47.7775V9.49157H47.7282C47.6155 9.18842 46.9392 8.90939 46.1748 9.01274C45.1921 9.1402 44.2481 9.92907 44.2481 11.4035C44.2481 12.9226 45.0935 13.8149 46.2417 13.8665C47.0413 13.9044 47.6612 13.5565 47.8268 13.1466H47.8691C47.9536 13.6633 48.4185 13.9458 49.1301 13.9079C50.6447 13.8527 51.0779 12.5299 51.0744 10.9556C51.0779 8.69237 49.521 6.94238 46.7771 6.94238C43.8536 6.94238 42.1523 8.7027 42.1488 11.4448C42.1523 14.2524 43.8254 15.868 46.7807 15.868ZM46.5341 12.8779C45.6148 12.8779 45.3048 12.1475 45.3013 11.3621C45.3048 10.5767 45.7521 10.0014 46.5411 10.0014C47.4182 10.0014 47.7423 10.4217 47.7458 11.3587C47.7564 12.3646 47.4253 12.8779 46.5341 12.8779Z" fill="#FFFFFF"></path></svg>