<svg xmlns:xlink="http://www.w3.org/1999/xlink" width="67" height="60" viewBox="0 0 67 60" fill="none" xmlns="http://www.w3.org/2000/svg"><path fill-rule="evenodd" clip-rule="evenodd" d="M17.892 6.67578C17.892 6.1235 18.3397 5.67578 18.892 5.67578H24.226C26.4351 5.67578 28.226 7.46664 28.226 9.67578V32.789C28.226 33.3413 27.7783 33.789 27.226 33.789C26.6737 33.789 26.226 33.3413 26.226 32.789V9.67578C26.226 8.57121 25.3305 7.67578 24.226 7.67578H18.892C18.3397 7.67578 17.892 7.22807 17.892 6.67578Z" fill="#68946C"></path><path fill-rule="evenodd" clip-rule="evenodd" d="M37.8959 38.7891C37.8959 38.2368 38.3436 37.7891 38.8959 37.7891H49.7859C51.995 37.7891 53.7859 39.5799 53.7859 41.7891V50.5679C53.7859 51.1202 53.3382 51.5679 52.7859 51.5679C52.2336 51.5679 51.7859 51.1202 51.7859 50.5679V41.7891C51.7859 40.6845 50.8905 39.7891 49.7859 39.7891H38.8959C38.3436 39.7891 37.8959 39.3413 37.8959 38.7891Z" fill="#A8EDAF"></path><rect width="20.0016" height="13.3344" rx="2" fill="#73B679"></rect><rect x="19" y="33" width="21" height="11" rx="2" fill="#49774E"></rect><rect x="39.8958" y="47.666" width="24.6688" height="11.3344" rx="2" fill="#FFFFFF" stroke="#638966" stroke-width="2px"></rect><rect x="21" y="18" width="45" height="10" rx="2" fill="#FFFFFF" stroke="#4C6C4F" stroke-width="2px"></rect></svg>