<svg xmlns:xlink="http://www.w3.org/1999/xlink" width="58" height="60" viewBox="0 0 58 60" fill="none" xmlns="http://www.w3.org/2000/svg"><rect x="1" y="1" width="24" height="26" rx="2" stroke="#49774E" stroke-width="2px" fill="none"></rect><path d="M14.6146 17.1967C14.8371 17.4191 14.8392 17.7843 14.5838 17.9678C13.9915 18.3933 13.2769 18.6264 12.5382 18.6264C11.6083 18.6264 10.7165 18.257 10.059 17.5994C9.40148 16.9419 9.03209 16.0501 9.03209 15.1203C9.03209 14.3816 9.26519 13.667 9.69065 13.0747C9.87417 12.8192 10.2393 12.8214 10.4617 13.0438L14.6146 17.1967Z" fill="#49774E"></path><path d="M9.94096 17.0091L10.6493 17.7175L9.11456 19.2522C8.91896 19.4478 8.60183 19.4478 8.40622 19.2522C8.21062 19.0566 8.21062 18.7395 8.40622 18.5439L9.94096 17.0091Z" fill="#49774E"></path><path d="M12.4851 11.0203C12.2627 10.7978 12.2605 10.4327 12.516 10.2492C13.1082 9.82372 13.8229 9.59062 14.5615 9.59062C15.4914 9.59062 16.3832 9.96001 17.0407 10.6175C17.6983 11.275 18.0676 12.1668 18.0676 13.0967C18.0676 13.8354 17.8345 14.55 17.4091 15.1423C17.2256 15.3977 16.8604 15.3956 16.638 15.1732L12.4851 11.0203Z" fill="#49774E"></path><path d="M17.1588 11.2077L16.4504 10.4994L17.6015 9.34833C17.7482 9.20163 18.0257 9.24127 18.2213 9.43688C18.4169 9.63248 18.4565 9.90997 18.3098 10.0567L17.1588 11.2077Z" fill="#15F52F"></path><path d="M12.5383 12.7575C12.7339 12.5619 13.051 12.5619 13.2466 12.7575C13.4422 12.9531 13.4422 13.2702 13.2466 13.4658L12.0661 14.6464L11.3577 13.9381L12.5383 12.7575Z" fill="#49774E"></path><path d="M12.5382 12.758C12.7338 12.5624 13.051 12.5624 13.2466 12.758C13.4422 12.9536 13.4422 13.2708 13.2466 13.4664L12.066 14.6469L11.3577 13.9386L12.5382 12.758Z" fill="#49774E"></path><path d="M14.309 14.5276C14.5046 14.332 14.8217 14.332 15.0173 14.5276C15.2129 14.7232 15.2129 15.0403 15.0173 15.2359L13.8368 16.4165L13.1284 15.7081L14.309 14.5276Z" fill="#49774E"></path><rect x="31" y="23" width="27" height="37" rx="3" fill="#49774E"></rect><path d="M44.7681 36C43.323 36 42.1462 37.1768 42.1462 38.6219C42.1462 39.4842 42.5743 40.2411 43.2196 40.7194L41.925 42.8578C41.9148 42.8548 41.9035 42.8527 41.8923 42.8496C41.6219 42.7769 41.3402 42.8169 41.0975 42.9561C40.5967 43.246 40.4236 43.8892 40.7124 44.39C40.906 44.7259 41.2593 44.9144 41.6219 44.9144C41.8001 44.9144 41.9814 44.8703 42.1462 44.7751C42.389 44.6348 42.5651 44.4064 42.6378 44.136C42.7106 43.8656 42.6716 43.584 42.5313 43.3412C42.4873 43.2654 42.4269 43.1979 42.3675 43.1364L43.7931 40.7931L43.9324 40.5637L43.703 40.4326C43.0854 40.068 42.6706 39.3931 42.6706 38.6219C42.6706 37.4605 43.6067 36.5244 44.7681 36.5244C45.9295 36.5244 46.8656 37.4605 46.8656 38.6219C46.8656 38.838 46.8359 39.0408 46.7755 39.2364L47.2753 39.392C47.3511 39.1473 47.39 38.8902 47.39 38.6219C47.39 37.1768 46.2132 36 44.7681 36ZM44.7681 37.5731C44.1895 37.5731 43.7194 38.0432 43.7194 38.6219C43.7194 39.2005 44.1895 39.6706 44.7681 39.6706C44.8552 39.6706 44.9412 39.6583 45.0221 39.6378L46.2839 41.9238L46.4068 42.1532L46.6444 42.0303C46.9445 41.8644 47.2845 41.7681 47.6522 41.7681C48.8136 41.7681 49.7497 42.7042 49.7497 43.8656C49.7497 45.027 48.8136 45.9631 47.6522 45.9631C47.0858 45.9631 46.5717 45.7368 46.1938 45.3732L45.8333 45.7501C46.3044 46.2038 46.9475 46.4875 47.6522 46.4875C49.0973 46.4875 50.274 45.3107 50.274 43.8656C50.274 42.4205 49.0973 41.2437 47.6522 41.2437C47.2886 41.2437 46.9516 41.339 46.6362 41.4732L45.4809 39.3839C45.6858 39.1923 45.8169 38.924 45.8169 38.6219C45.8169 38.0432 45.3468 37.5731 44.7681 37.5731ZM40.9828 41.3175C39.8408 41.6022 39 42.6397 39 43.8656C39 45.3107 40.1768 46.4875 41.6219 46.4875C42.9738 46.4875 44.0563 45.4439 44.1946 44.1278H46.6444C46.7611 44.5795 47.1647 44.9144 47.6522 44.9144C48.2308 44.9144 48.7009 44.4443 48.7009 43.8656C48.7009 43.287 48.2308 42.8169 47.6522 42.8169C47.1647 42.8169 46.7611 43.1518 46.6444 43.6034H43.7194V43.8656C43.7194 45.027 42.7833 45.9631 41.6219 45.9631C40.4605 45.9631 39.5244 45.027 39.5244 43.8656C39.5244 42.8804 40.2024 42.061 41.1139 41.8337L40.9828 41.3175Z" fill="#FFFFFF"></path><rect x="32" y="1" width="25" height="16" rx="2" stroke="#49774E" stroke-width="2px" fill="none"></rect><g clip-path="url(#clip0_971_7928)" fill="none"><path d="M42.9 9.52246C42.3264 9.52246 41.8348 10.0141 41.8348 10.5876V13.2422C41.8348 13.8158 42.3264 14.3074 42.9 14.3074C43.4735 14.3074 43.9651 13.8158 43.9651 13.2422V10.5876C43.9651 9.98129 43.5063 9.52246 42.9 9.52246Z" fill="#18F232"></path><path d="M39.1638 10.5876C39.1638 11.1611 39.6554 11.6527 40.229 11.6527C40.8025 11.6527 41.2941 11.1611 41.2941 10.5876V9.52246H40.2453C39.6554 9.52246 39.1638 9.98129 39.1638 10.5876Z" fill="#64F164"></path><path d="M42.9 4.16406C42.3264 4.16406 41.8348 4.65566 41.8348 5.2292C41.8348 5.80273 42.3264 6.29433 42.9 6.29433H43.9651C43.9651 5.68802 43.9651 5.83551 43.9651 5.2292C43.9651 4.65566 43.5063 4.16406 42.9 4.16406Z" fill="#79F164"></path><path d="M40.229 8.96523H42.9C43.4735 8.96523 43.9651 8.47363 43.9651 7.9001C43.9651 7.32656 43.4735 6.83496 42.9 6.83496H40.229C39.6554 6.83496 39.1638 7.32656 39.1638 7.9001C39.1638 8.47363 39.6226 8.96523 40.229 8.96523Z" fill="#9AF164"></path><path d="M48.242 6.83496C47.6685 6.83496 47.1769 7.32656 47.1769 7.9001V8.96523H48.242C48.8156 8.96523 49.3072 8.47363 49.3072 7.9001C49.3072 7.32656 48.8319 6.83496 48.242 6.83496Z" fill="#4FC62B"></path><path d="M44.5222 5.2292V7.90023C44.5222 8.47376 45.0138 8.96536 45.5874 8.96536C46.1609 8.96536 46.6525 8.47376 46.6525 7.90023V5.2292C46.6525 4.65566 46.1609 4.16406 45.5874 4.16406C44.981 4.16406 44.5222 4.65566 44.5222 5.2292Z" fill="#57C21A"></path><path d="M46.6525 13.2585C46.6525 12.685 46.1609 12.1934 45.5874 12.1934H44.5222V13.2585C44.5222 13.832 45.0138 14.3236 45.5874 14.3236C46.1609 14.3236 46.6525 13.832 46.6525 13.2585Z" fill="#1EDC44"></path><path d="M48.2584 9.52246H45.5874C45.0138 9.52246 44.5222 10.0141 44.5222 10.5876C44.5222 11.1611 45.0138 11.6527 45.5874 11.6527H48.2584C48.8319 11.6527 49.3235 11.1611 49.3235 10.5876C49.3235 9.98129 48.8319 9.52246 48.2584 9.52246Z" fill="#82BF20"></path></g><rect x="1" y="34" width="24" height="25" rx="2" stroke="#6A64F1" stroke-width="2px" fill="none"></rect><g clip-path="url(#clip1_971_7928)" fill="none"><path d="M17.6477 43.6591L16.2036 50.4186C16.0961 50.8949 15.8195 51.0024 15.4201 50.7873L13.254 49.1896L12.194 50.2036C12.0864 50.3111 11.9789 50.4186 11.7331 50.4186L11.9021 48.1911L15.9424 44.5194C16.1114 44.3504 15.8963 44.289 15.6813 44.4273L10.6577 47.5919L8.49161 46.9313C8.01537 46.7777 8.01537 46.4551 8.59915 46.24L17.0178 42.9678C17.4326 42.8449 17.7859 43.06 17.6477 43.6591Z" fill="#61DA24"></path></g><path fill-rule="evenodd" clip-rule="evenodd" d="M31 10.5H26V8.5H31V10.5Z" fill="#28D91C"></path><path fill-rule="evenodd" clip-rule="evenodd" d="M31 47H26V45H31V47Z" fill="#45BA21"></path><path fill-rule="evenodd" clip-rule="evenodd" d="M14 28L14 33L12 33L12 28L14 28Z" fill="#4BD22A"></path><defs><clipPath id="clip0_971_7928"><rect width="10.4875" height="10.4875" fill="white" transform="translate(39 4)"></rect></clipPath><clipPath id="clip1_971_7928"><rect width="9.83201" height="9.83201" fill="white" transform="translate(8 42)"></rect></clipPath></defs></svg>