<svg xmlns:xlink="http://www.w3.org/1999/xlink" width="51" height="60" viewBox="0 0 51 60" fill="none" xmlns="http://www.w3.org/2000/svg"><path fill-rule="evenodd" clip-rule="evenodd" d="M33.1015 4.53152C28.1688 2.60657 22.6927 2.60657 17.76 4.53152L3.08781 10.2572V31.4086C3.08781 36.1366 5.05872 40.6505 8.52635 43.8644L24.3812 56.5006C24.9733 57.0494 25.8882 57.0494 26.4802 56.5006L42.3351 43.8644C45.8027 40.6505 47.7736 36.1366 47.7736 31.4086V10.2572L33.1015 4.53152ZM16.6374 1.65499C22.292 -0.551664 28.5695 -0.551662 34.224 1.65499L49.2237 7.50853C50.2113 7.89393 50.8615 8.84554 50.8615 9.90564V31.4086C50.8615 36.9962 48.5322 42.3309 44.4341 46.1291L28.5792 58.7653C26.803 60.4116 24.0585 60.4116 22.2823 58.7653L6.42737 46.1291C2.32926 42.3309 0 36.9962 0 31.4086V9.90564C0 8.84554 0.650144 7.89393 1.63772 7.50853L16.6374 1.65499Z" fill="#A8F7AC"></path><path d="M25.217 50.5233V8.42143C25.217 7.75383 24.5754 7.27369 23.9349 7.46207L9.15513 11.8091C8.30396 12.0594 7.71946 12.8406 7.71946 13.7278V32.0977C7.71946 34.5312 8.70493 36.861 10.4512 38.5559L23.5206 51.2409C24.1547 51.8564 25.217 51.407 25.217 50.5233Z" fill="#4FD21F"></path></svg>