<svg xmlns="http://www.w3.org/2000/svg" width="21" height="21" viewBox="0 0 21 21" fill="none">
  <path fill-rule="evenodd" clip-rule="evenodd" d="M1.75 3.83203C1.75 2.45132 2.86929 1.33203 4.25 1.33203H5.39302C6.11 1.33203 6.73498 1.82 6.90887 2.51557L7.83037 6.20156C7.98284 6.81145 7.75495 7.45332 7.25202 7.83052L6.174 8.63903C6.06206 8.72299 6.03772 8.84593 6.06917 8.93177C7.01542 11.5149 9.0671 13.5666 11.6503 14.5129C11.7361 14.5443 11.859 14.52 11.943 14.408L12.7515 13.33C13.1287 12.8271 13.7706 12.5992 14.3805 12.7517L18.0665 13.6732C18.762 13.8471 19.25 14.472 19.25 15.189V16.332C19.25 17.7127 18.1307 18.832 16.75 18.832H14.875C7.62626 18.832 1.75 12.9558 1.75 5.70703V3.83203Z" fill="black"/>
</svg>