<svg xmlns="http://www.w3.org/2000/svg" width="20" height="21" viewBox="0 0 20 21" fill="none">
  <path d="M6.2918 18.6656C13.8371 18.6656 17.9652 12.4129 17.9652 6.9922C17.9652 6.81642 17.9613 6.63673 17.9535 6.46095C18.7566 5.8802 19.4496 5.16086 20 4.33673C19.2521 4.66948 18.458 4.8868 17.6449 4.98126C18.5011 4.46807 19.1421 3.66188 19.4492 2.71212C18.6438 3.18945 17.763 3.52616 16.8445 3.70782C16.2257 3.05028 15.4075 2.61491 14.5164 2.46903C13.6253 2.32314 12.711 2.47486 11.9148 2.90073C11.1186 3.3266 10.4848 4.0029 10.1115 4.82508C9.73825 5.64725 9.64619 6.5695 9.84961 7.44923C8.21874 7.36739 6.62328 6.94374 5.16665 6.20573C3.71002 5.46773 2.42474 4.43185 1.39414 3.16525C0.870333 4.06835 0.710047 5.13702 0.945859 6.15406C1.18167 7.1711 1.79589 8.06019 2.66367 8.64064C2.01219 8.61995 1.37498 8.44455 0.804688 8.12892V8.1797C0.804104 9.12744 1.13175 10.0461 1.73192 10.7796C2.3321 11.5131 3.16777 12.0161 4.09687 12.2031C3.49338 12.3683 2.85999 12.3923 2.2457 12.2734C2.50788 13.0885 3.01798 13.8014 3.70481 14.3126C4.39164 14.8238 5.22093 15.1078 6.07695 15.125C4.62369 16.2666 2.82848 16.8858 0.980469 16.8828C0.652739 16.8823 0.325333 16.8622 0 16.8227C1.87738 18.0271 4.06128 18.6668 6.2918 18.6656Z" fill="#1884E8"/>
</svg>