<svg xmlns="http://www.w3.org/2000/svg" width="143" height="143" viewBox="0 0 143 143" fill="none">
  <rect x="1" y="1" width="141" height="141" rx="23" fill="#0EB633" fill-opacity="0.15"/>
  <rect x="1" y="1" width="141" height="141" rx="23" stroke="#0EB633" stroke-width="2"/>
  <path d="M71.5 59.0716V71.5002L77.7143 77.7145M90.1843 93.6645L88.7343 109.532C88.5476 111.597 87.5929 113.518 86.0588 114.914C84.5247 116.31 82.5228 117.08 80.4486 117.072H62.51C60.4358 117.08 58.4339 116.31 56.8998 114.914C55.3656 113.518 54.4109 111.597 54.2243 109.532L52.7743 93.6645M52.8157 49.3359L54.2657 33.4688C54.4517 31.4101 55.4006 29.4953 56.9259 28.1003C58.4512 26.7052 60.4429 25.9307 62.51 25.9288H80.5314C82.6056 25.9204 84.6076 26.6902 86.1417 28.0863C87.6758 29.4823 88.6305 31.403 88.8171 33.4688L90.2671 49.3359M100.5 71.5002C100.5 87.5165 87.5163 100.5 71.5 100.5C55.4837 100.5 42.5 87.5165 42.5 71.5002C42.5 55.484 55.4837 42.5002 71.5 42.5002C87.5163 42.5002 100.5 55.484 100.5 71.5002Z" stroke="#0EB633" stroke-width="4" stroke-linecap="round" stroke-linejoin="round"/>
</svg>